<svg xmlns="http://www.w3.org/2000/svg" width="94.669" height="99.001" viewBox="0 0 94.669 99.001">
    <g id="blood-sample" transform="translate(-11.198)">
        <path id="Path_973" data-name="Path 973"
            d="M86.164,203.574h-11.8a2.127,2.127,0,0,1-2.127-2.127V146.374a2.127,2.127,0,0,1,2.127-2.127h11.8a2.127,2.127,0,0,1,0,4.255H76.487V199.32h9.677a2.127,2.127,0,0,1,0,4.255Z"
            transform="translate(-49.23 -116.349)" fill="#fff" />
        <path id="Path_974" data-name="Path 974"
            d="M39.061,18.25V2.127A2.127,2.127,0,0,0,36.934,0H13.325A2.127,2.127,0,0,0,11.2,2.127V18.25h4.255v-14h7.6V17.942H27.3V4.255h7.5V18.022Z"
            fill="#fff" />
        <path id="Path_975" data-name="Path 975"
            d="M36.934,166.24H13.325a2.127,2.127,0,0,1-2.127-2.127V85.489a2.127,2.127,0,0,1,2.127-2.127H36.934a2.127,2.127,0,0,1,2.127,2.127v78.623A2.127,2.127,0,0,1,36.934,166.24Zm-21.481-4.255H34.806V87.617H15.453Z"
            transform="translate(0 -67.24)" fill="#fff" />
        <path id="Path_976" data-name="Path 976"
            d="M326.726,213.3a10.319,10.319,0,0,1-10.308-10.308c0-2.432,1.507-5.362,4.606-8.959a50.4,50.4,0,0,1,4.292-4.387,2.127,2.127,0,0,1,2.819,0,50.333,50.333,0,0,1,4.292,4.387c3.1,3.6,4.606,6.527,4.606,8.959A10.319,10.319,0,0,1,326.726,213.3Zm0-19.147c-2.862,2.812-6.051,6.746-6.051,8.839a6.053,6.053,0,0,0,12.106,0C332.778,200.926,329.543,196.937,326.724,194.156Z"
            transform="translate(-246.189 -152.54)" fill="#fff" />
        <path id="Path_977" data-name="Path 977"
            d="M215.338,124.531a25.365,25.365,0,0,0-25.241,23.2h-9.648a2.127,2.127,0,1,0,0,4.255H190.1a25.331,25.331,0,1,0,25.241-27.458Zm0,46.407a21.076,21.076,0,1,1,21.076-21.076A21.1,21.1,0,0,1,215.338,170.938Z"
            transform="translate(-134.802 -100.446)" fill="#fff" />
    </g>
</svg>  