<svg id="protection" xmlns="http://www.w3.org/2000/svg" width="99.001" height="99.001" viewBox="0 0 99.001 99.001">
  <g id="Group_803" data-name="Group 803">
    <path id="Path_1016" data-name="Path 1016" d="M42.568,90.912a2.134,2.134,0,0,1-.542-.07c-15.186-4-26.4-12.609-33.321-25.591C3.168,54.869.32,41.877,0,25.534c0-.014,0-.028,0-.042,0-2.547,1.056-5.83,6.086-7.008a17.055,17.055,0,0,0,12.97-13.9A5.319,5.319,0,0,1,24.655,0H60.48a5.32,5.32,0,0,1,5.6,4.581,17.055,17.055,0,0,0,12.97,13.9c5.03,1.178,6.086,4.461,6.086,7.008,0,.014,0,.028,0,.042-.255,13.053-2.233,24.359-5.878,33.6a2.127,2.127,0,0,1-3.958-1.56c3.457-8.767,5.334-19.568,5.581-32.105,0-1.2-.225-2.243-2.8-2.846A21.386,21.386,0,0,1,67.3,16.4,20.808,20.808,0,0,1,61.872,5.207c-.053-.357-.142-.954-1.392-.954H24.655c-1.25,0-1.339.6-1.392.954A20.81,20.81,0,0,1,17.836,16.4a21.387,21.387,0,0,1-10.78,6.231c-2.577.6-2.8,1.646-2.8,2.846.675,34.269,13.211,54.264,38.313,61.111a52.882,52.882,0,0,0,15.069-6.64,2.127,2.127,0,0,1,2.328,3.56,57.385,57.385,0,0,1-16.856,7.339A2.135,2.135,0,0,1,42.568,90.912Z"/>
    <path id="Path_1017" data-name="Path 1017" d="M74.938,115.044a2.123,2.123,0,0,1-.612-.09C62.307,111.34,53.345,104.1,47.691,93.423c-4.656-8.788-7.128-19.773-7.56-33.582a2.127,2.127,0,0,1,1.519-2.1A24.621,24.621,0,0,0,58.257,41.342a2.127,2.127,0,0,1,2.034-1.506H89.586a2.127,2.127,0,0,1,2.034,1.506,24.621,24.621,0,0,0,16.607,16.394,2.127,2.127,0,0,1,1.519,2.1c-.3,9.526-1.948,23.265-8.122,34.627a2.127,2.127,0,0,1-3.738-2.031c5.446-10.022,7.135-22.188,7.547-31.143a28.85,28.85,0,0,1-17.376-17.2H61.82a28.85,28.85,0,0,1-17.377,17.2c1.2,27.149,11.187,43.321,30.5,49.4a40.494,40.494,0,0,0,15.337-8.6,2.127,2.127,0,1,1,2.87,3.14,44.948,44.948,0,0,1-17.595,9.726A2.125,2.125,0,0,1,74.938,115.044Z" transform="translate(-32.371 -32.133)" fill="#2ab170"/>
    <path id="Path_1018" data-name="Path 1018" d="M363.058,356.61l-.434-.251a5.992,5.992,0,0,0-.205-3.537l.653-.653a2.127,2.127,0,0,0-3.008-3.008l-.458.458a5.967,5.967,0,0,0-2.812-.7,1.75,1.75,0,0,1-1.751-1.751,5.982,5.982,0,0,0-.291-1.845l.737-.737a2.127,2.127,0,0,0-3.008-3.008l-.41.41a5.967,5.967,0,0,0-3.033-.826c-.136,0-.27.006-.4.015l-.44-.761a2.127,2.127,0,0,0-3.684,2.126l.244.422a6.028,6.028,0,0,0-1.161,1.675h-.855a2.127,2.127,0,0,0,0,4.254h.406a13.677,13.677,0,0,0,.65,2.8l-.491.283a2.127,2.127,0,1,0,2.126,3.684l.372-.215a13.956,13.956,0,0,0,1.263,1.453c.223.223.454.434.689.639l-.294.508a2.127,2.127,0,1,0,3.684,2.127l.209-.362a13.61,13.61,0,0,0,2.742.854v.559a2.127,2.127,0,0,0,4.254,0v-.5a5.981,5.981,0,0,0,1.847-.854l.737.426a2.127,2.127,0,0,0,2.127-3.685Zm-6.264-3.438a1.751,1.751,0,1,1,0,3.5,9.507,9.507,0,0,1-9.507-9.507,1.751,1.751,0,1,1,3.5,0,6,6,0,0,0,6,6Z" transform="translate(-274.749 -273.735)" fill="#2ab170"/>
    <path id="Path_1019" data-name="Path 1019" d="M312.2,333.582A21.384,21.384,0,1,1,333.582,312.2,21.409,21.409,0,0,1,312.2,333.582Zm0-38.515a17.13,17.13,0,1,0,17.13,17.13A17.15,17.15,0,0,0,312.2,295.067Z" transform="translate(-234.581 -234.581)"/>
    <path id="Path_1020" data-name="Path 1020" d="M165.253,201.136a5.96,5.96,0,0,1-4.227-1.748l-4.269-4.269a5.978,5.978,0,0,1,8.454-8.455l.042.042L170,181.963a5.978,5.978,0,1,1,8.455,8.454l-8.971,8.971A5.962,5.962,0,0,1,165.253,201.136Zm-4.269-11.949a1.722,1.722,0,0,0-1.219.485,1.776,1.776,0,0,0,0,2.439l4.269,4.269a1.724,1.724,0,0,0,2.438,0l8.971-8.971A1.724,1.724,0,1,0,173,184.97l-6.248,6.248a2.127,2.127,0,0,1-3.008,0l-1.546-1.546A1.72,1.72,0,0,0,160.984,189.187Z" transform="translate(-125.036 -145.368)" fill="#2ab170"/>
  </g>
</svg>
