<svg xmlns="http://www.w3.org/2000/svg" width="99" height="82.783" viewBox="0 0 99 82.783">
  <g id="test-tube_2_" data-name="test-tube (2)" transform="translate(0 -42.127)">
    <g id="Group_796" data-name="Group 796" transform="translate(68.713 42.127)">
      <path id="Path_990" data-name="Path 990" d="M373.989,255.954a5.008,5.008,0,0,1-3.564-1.476l-6.945-6.945a.8.8,0,0,0-.57-.236h-3.8a2.117,2.117,0,0,1,0-4.234h3.8a5.008,5.008,0,0,1,3.564,1.476l6.945,6.945a.806.806,0,0,0,1.14,0l8.255-8.255a.807.807,0,0,0,0-1.141L366.225,225.5a5.008,5.008,0,0,1-1.476-3.564v-13a4.64,4.64,0,0,0-3.519,4.495,2.117,2.117,0,1,1-4.234,0,8.876,8.876,0,0,1,8.851-8.864h0a3.128,3.128,0,0,1,3.133,3.124v14.243a.8.8,0,0,0,.236.57l16.589,16.589a5.047,5.047,0,0,1,0,7.129l-8.255,8.255A5.008,5.008,0,0,1,373.989,255.954Z" transform="translate(-356.995 -173.302)" fill="#2ab170"/>
      <g id="Group_795" data-name="Group 795" transform="translate(8.577 0)">
        <path id="Path_991" data-name="Path 991" d="M415.048,60.309h-6.941a3.088,3.088,0,0,1-2.667-1.54l-3.471-6.011a3.088,3.088,0,0,1,0-3.08l3.471-6.012a3.088,3.088,0,0,1,2.667-1.54h6.941a3.088,3.088,0,0,1,2.667,1.54l3.471,6.011a3.088,3.088,0,0,1,0,3.079l-3.471,6.012A3.088,3.088,0,0,1,415.048,60.309Zm-6.275-4.234h5.608l2.8-4.857-2.8-4.857h-5.608l-2.8,4.857Z" transform="translate(-401.557 -42.127)" fill="#2ab170"/>
      </g>
    </g>
    <g id="Group_797" data-name="Group 797" transform="translate(0 42.127)">
      <path id="Path_992" data-name="Path 992" d="M104.016,104.553a2.117,2.117,0,0,0-2.117,2.117v2.122H95.1V106.67a2.117,2.117,0,0,0-4.234,0v7.116a5.548,5.548,0,0,0,1.636,3.949l3.006,3.006L92.5,123.747a5.548,5.548,0,0,0-1.635,3.949v7.116a2.117,2.117,0,0,0,4.234,0v-2.122h6.8v2.122a2.117,2.117,0,0,0,4.234,0V127.7a5.549,5.549,0,0,0-1.636-3.949l-3.006-3.006,3.006-3.006a5.548,5.548,0,0,0,1.636-3.949V106.67A2.117,2.117,0,0,0,104.016,104.553ZM101.5,126.741a1.341,1.341,0,0,1,.4.955v.759H95.1V127.7a1.341,1.341,0,0,1,.4-.954l3.006-3.006Zm0-12L98.5,117.746l-3.006-3.006a1.34,1.34,0,0,1-.4-.954v-.759h6.8v.759A1.339,1.339,0,0,1,101.5,114.741Z" transform="translate(-73.373 -92.538)" fill="#2ab170"/>
      <path id="Path_993" data-name="Path 993" d="M72.947,53.747V46.194a4.071,4.071,0,0,0-4.066-4.066H57.4a4.071,4.071,0,0,0-4.066,4.066v7.553a3.081,3.081,0,0,0-2.99,3.075v6.617a3.081,3.081,0,0,0,2.99,3.075v1.7h-3.18a25.125,25.125,0,1,0,0,4.234h3.18V83.114h4.234V79.492h11.14v35.615a5.57,5.57,0,0,1-11.14,0H53.339a9.8,9.8,0,0,0,19.609,0V66.514a3.081,3.081,0,0,0,2.99-3.075V56.822A3.082,3.082,0,0,0,72.947,53.747ZM25.124,91.221a20.89,20.89,0,1,1,20.89-20.89A20.914,20.914,0,0,1,25.124,91.221ZM54.583,62.284V57.977H71.7v4.307Zm14.13-15.921v7.38H57.573v-7.38ZM57.573,75.257V72.448h5.57a2.117,2.117,0,1,0,0-4.234h-5.57v-1.7h11.14v8.739H57.573Z" transform="translate(0 -42.128)"/>
      <path id="Path_994" data-name="Path 994" d="M253.7,253.939a5.99,5.99,0,0,0-4.566-9.871h-3.524a5.99,5.99,0,0,0-4.566,9.871,5.977,5.977,0,0,0,0,7.754,5.977,5.977,0,0,0,0,7.754,5.99,5.99,0,0,0,4.566,9.871h3.524a5.99,5.99,0,0,0,4.566-9.871,5.977,5.977,0,0,0,0-7.754,5.977,5.977,0,0,0,0-7.754Zm-2.806,11.63a1.762,1.762,0,0,1-1.76,1.76h-3.524a1.76,1.76,0,1,1,0-3.519h3.524A1.762,1.762,0,0,1,250.889,265.569Zm-5.284-5.994a1.76,1.76,0,1,1,0-3.519h3.524a1.76,1.76,0,1,1,0,3.519Zm0-11.273h3.524a1.76,1.76,0,1,1,0,3.519h-3.524a1.76,1.76,0,1,1,0-3.519Zm3.524,26.78h-3.524a1.76,1.76,0,1,1,0-3.519h3.524a1.76,1.76,0,1,1,0,3.519Z" transform="translate(-193.492 -205.199)" fill="#2ab170"/>
    </g>
  </g>
</svg>
