<svg xmlns="http://www.w3.org/2000/svg" width="98.98" height="99.001" viewBox="0 0 98.98 99.001">
    <g id="folder" transform="translate(-0.053)">
        <path id="Path_995" data-name="Path 995"
            d="M99.021,2.127A2.127,2.127,0,0,0,96.894,0H44.829a2.117,2.117,0,0,0-1.466.588h0l-5.513,5.26H2.18A2.127,2.127,0,0,0,.053,7.975V91.355A7.654,7.654,0,0,0,7.7,99H92.426a6.615,6.615,0,0,0,6.608-6.608ZM44.829,20.338a2.127,2.127,0,0,0,2.127-2.127V4.254H94.768V40.071H30.1V20.338ZM42.7,16.084H33.281L42.7,7.1v8.988ZM4.307,91.355V10.1H33.389L26.5,16.672a2.127,2.127,0,0,0-.658,1.538h0v21.86H13.991A2.127,2.127,0,0,0,11.864,42.2V91.053A3.7,3.7,0,0,1,8.17,94.747H7.7A3.4,3.4,0,0,1,4.307,91.355Zm88.119,3.392H15.2a7.9,7.9,0,0,0,.914-3.694V44.325H94.768l.012,48.068A2.357,2.357,0,0,1,92.426,94.747Z"
            fill="#fff" />
        <path id="Path_996" data-name="Path 996"
            d="M366.736,360.546h-4.484v-4.484a2.127,2.127,0,0,0-4.254,0v4.484h-4.484a2.127,2.127,0,0,0,0,4.254H358v4.484a2.127,2.127,0,0,0,4.254,0V364.8h4.484a2.127,2.127,0,1,0,0-4.254Z"
            transform="translate(-283.4 -285.498)" fill="#fff" />
        <g id="Group_798" data-name="Group 798" transform="translate(25.6 69.979)">
            <path id="Path_997" data-name="Path 997"
                d="M153.831,366.163H134.3a2.127,2.127,0,0,1,0-4.254h19.531a2.127,2.127,0,0,1,0,4.254Z"
                transform="translate(-132.173 -361.909)" fill="#fff" />
            <path id="Path_998" data-name="Path 998"
                d="M153.831,426.57H134.3a2.127,2.127,0,1,1,0-4.254h19.531a2.127,2.127,0,1,1,0,4.254Z"
                transform="translate(-132.173 -410.636)" fill="#fff" />
        </g>
    </g>
</svg>
  