<svg xmlns="http://www.w3.org/2000/svg" width="90.535" height="99.001" viewBox="0 0 90.535 99.001">
  <g id="microscope_1_" data-name="microscope (1)" transform="translate(-21.891 0)">
    <g id="Group_794" data-name="Group 794" transform="translate(21.891 5.801)">
      <g id="Group_793" data-name="Group 793">
        <path id="Path_987" data-name="Path 987" d="M110.3,94.965H49.432a11.633,11.633,0,1,1,0-23.266H52.3a12.02,12.02,0,0,0,13.805,2.854l7.486,7.486a6.058,6.058,0,0,0,8.568,0L93.28,70.92a6.058,6.058,0,0,0,0-8.568L62.7,31.773a6.065,6.065,0,0,0-8.568,0l-11.12,11.12a6.066,6.066,0,0,0,0,8.568l4.273,4.273c-34.545,3.822-33.552,52.889,1.176,55.261l-2.607,7.952h-2.39a2.127,2.127,0,0,0,0,4.254H82.779a2.127,2.127,0,0,0,0-4.254h-2.39l-2.6-7.933h8.923A13.943,13.943,0,0,0,100.47,99.219h9.83a2.127,2.127,0,1,0,0-4.254ZM46.022,45.9l11.12-11.12a1.806,1.806,0,0,1,2.552,0L90.273,65.36a1.813,1.813,0,0,1,0,2.552l-11.12,11.12a1.8,1.8,0,0,1-2.552,0L69.649,72.08a11.916,11.916,0,0,0,3.463-8.4c.025-10.589-12.969-15.911-20.36-8.493l-6.73-6.73A1.807,1.807,0,0,1,46.022,45.9Zm3.41,60.859a23.429,23.429,0,1,1,.382-46.854,11.99,11.99,0,0,0,0,7.54,15.889,15.889,0,1,0-.382,31.774h2.892l-2.472,7.54h-.42Zm.9,12.187L56.8,99.219H69.444l6.468,19.727ZM86.711,106.76H76.393l-2.472-7.54H96.142A9.684,9.684,0,0,1,86.711,106.76ZM68.858,63.675a7.7,7.7,0,1,1-7.7-7.7A7.7,7.7,0,0,1,68.858,63.675Z" transform="translate(-21.891 -30.001)"/>
        <circle id="Ellipse_90" data-name="Ellipse 90" cx="2.126" cy="2.126" r="2.126" transform="translate(39.105 76.759)" fill="#2ab170"/>
      </g>
    </g>
    <path id="Path_988" data-name="Path 988" d="M101.315,16.917,96.872,10.7l5.792-5.792,6.22,4.443c.857-.817,2.208-2.4,3.289-2.879L103.67.4a2.127,2.127,0,0,0-2.74.227l-8.34,8.34a2.127,2.127,0,0,0-.227,2.74l6.073,8.5C98.91,19.132,100.5,17.767,101.315,16.917Z" transform="translate(-56.526 0)"/>
    <path id="Path_989" data-name="Path 989" d="M333.1,252.251c-.038.038-.078.074-.117.111l6.839,6.839a2.127,2.127,0,0,0,3.008,0l8.34-8.34a2.127,2.127,0,0,0,0-3.008l-6.839-6.839C344.134,241.227,333.281,252.063,333.1,252.251Zm8.226,2.438-5.332-5.332,5.332-5.332,5.332,5.332Z" transform="translate(-250.938 -194.411)" fill="#2ab170"/>
  </g>
</svg>
