<svg xmlns="http://www.w3.org/2000/svg" width="99" height="84.934" viewBox="0 0 99 84.934">
    <g id="virtual-lab_2_" data-name="virtual-lab (2)" transform="translate(0 -36.397)">
        <path id="Path_971" data-name="Path 971"
            d="M96.839,36.4H2.161A2.161,2.161,0,0,0,0,38.558v66.875a2.161,2.161,0,0,0,2.161,2.161H27.08a4.582,4.582,0,0,1,3.084,1.315c2.847,2.731,1.223,7.842-2.808,8.093H17.876a2.161,2.161,0,0,0,0,4.322h8.878q.357.017.714,0H71.532q.356.017.714,0h8.878a2.161,2.161,0,1,0,0-4.322H71.639c-4.024-.26-5.653-5.35-2.8-8.093a4.582,4.582,0,0,1,3.09-1.315H96.839A2.161,2.161,0,0,0,99,105.433V38.558A2.162,2.162,0,0,0,96.839,36.4ZM64.353,117H34.646a9.2,9.2,0,0,0-.044-9.408H64.4A9.2,9.2,0,0,0,64.353,117Zm30.325-13.729H4.321V40.718H94.678Z"
            fill="#fff" />
        <path id="Path_972" data-name="Path 972"
            d="M178.778,116.191a2.161,2.161,0,0,0-2.161,2.161v1.341h-6.231a13.243,13.243,0,0,0-2.318-5.609l4.4-4.4.948.948a2.161,2.161,0,0,0,3.056-3.056l-4.952-4.952a2.161,2.161,0,0,0-3.056,3.056l.948.948-4.4,4.4a13.244,13.244,0,0,0-5.614-2.338v-6.206h1.341a2.161,2.161,0,0,0,0-4.322h-7a2.161,2.161,0,0,0,0,4.322h1.341v6.206a13.243,13.243,0,0,0-5.614,2.338l-4.4-4.4.948-.948a2.161,2.161,0,1,0-3.056-3.056l-4.952,4.952a2.161,2.161,0,0,0,3.056,3.056l.948-.948,4.4,4.4a13.239,13.239,0,0,0-2.318,5.609h-6.231v-1.341a2.161,2.161,0,0,0-4.322,0v7a2.161,2.161,0,0,0,4.322,0v-1.341h6.242a13.242,13.242,0,0,0,2.332,5.583l-4.428,4.428-.948-.948a2.161,2.161,0,0,0-3.056,3.056l4.952,4.952a2.161,2.161,0,0,0,3.056-3.056l-.948-.948,4.433-4.433a13.243,13.243,0,0,0,5.578,2.312v6.268h-1.341a2.161,2.161,0,1,0,0,4.322h7a2.161,2.161,0,0,0,0-4.322H159.4v-6.268a13.241,13.241,0,0,0,5.578-2.312l4.433,4.433-.948.948a2.161,2.161,0,1,0,3.056,3.056l4.952-4.952a2.161,2.161,0,1,0-3.056-3.056l-.948.948-4.428-4.428a13.243,13.243,0,0,0,2.332-5.583h6.242v1.341a2.161,2.161,0,0,0,4.322,0v-7A2.161,2.161,0,0,0,178.778,116.191Zm-21.535-3.363a9,9,0,0,1,8.994,8.994c-.494,11.932-17.5,11.928-17.988,0A9,9,0,0,1,157.243,112.828Z"
            transform="translate(-107.743 -49.827)" fill="#fff" />
    </g>
</svg>  