<svg xmlns="http://www.w3.org/2000/svg" width="99" height="98.804" viewBox="0 0 99 98.804">
    <g id="virtual-lab_1_" data-name="virtual-lab (1)" transform="translate(0 -0.508)">
        <path id="Path_961" data-name="Path 961"
            d="M191.51,140.223H179.746a2.161,2.161,0,0,1,0-4.321H191.51a2.161,2.161,0,1,1,0,4.321Z"
            transform="translate(-143.281 -109.233)" fill="#fff" />
        <path id="Path_962" data-name="Path 962"
            d="M96.839,24.395h-33a2.161,2.161,0,1,0,0,4.322H94.679V81.253H4.321V28.716H34.3V40.646a2.161,2.161,0,0,0,2.161,2.161H48.229a2.161,2.161,0,0,0,2.161-2.161v-14.5a2.161,2.161,0,0,0-4.322,0V38.485H38.625V13.807h7.443V20.34a2.161,2.161,0,0,0,4.321,0V11.646a2.161,2.161,0,0,0-2.161-2.161H44.507V2.669a2.161,2.161,0,1,0-4.322,0V9.485H36.465A2.161,2.161,0,0,0,34.3,11.646V24.4H2.161A2.161,2.161,0,0,0,0,26.556V83.414a2.161,2.161,0,0,0,2.161,2.161H27.078a4.586,4.586,0,0,1,3.087,1.315c2.847,2.733,1.223,7.843-2.81,8.093H17.876a2.161,2.161,0,0,0,0,4.322h8.878q.357.017.714,0H71.531q.356.017.714,0h8.878a2.161,2.161,0,1,0,0-4.322H71.641A4.613,4.613,0,0,1,67.4,90.326a4.729,4.729,0,0,1,4.528-4.751H96.839A2.161,2.161,0,0,0,99,83.414V26.556A2.161,2.161,0,0,0,96.839,24.395ZM64.354,94.982H34.646a9.2,9.2,0,0,0-.044-9.408H64.4A9.2,9.2,0,0,0,64.354,94.982Z"
            fill="#fff" />
        <path id="Path_963" data-name="Path 963"
            d="M182.01,262.659h-17.1a2.161,2.161,0,0,1,0-4.321h17.1a2.161,2.161,0,1,1,0,4.321Z"
            transform="translate(-131.315 -208.012)" fill="#fff" />
        <path id="Path_964" data-name="Path 964"
            d="M254.745,83.179h-.337a8.957,8.957,0,0,0-8.892-9.808c-11.853.491-11.851,17.381,0,17.87A8.928,8.928,0,0,0,252.78,87.5h1.965a13.15,13.15,0,1,1,0,26.3h-4.41a2.161,2.161,0,0,0,0,4.322h4.41C277.923,117.163,277.916,84.134,254.745,83.179Zm-9.229,3.741a4.614,4.614,0,1,1,4.614-4.614A4.619,4.619,0,0,1,245.516,86.919Z"
            transform="translate(-190.906 -58.784)" fill="#fff" />
        <path id="Path_965" data-name="Path 965"
            d="M177.646,297.054H175.02L168,283.764a2.161,2.161,0,0,0-1.911-1.152h-7.627a2.161,2.161,0,0,0-2.161,2.161v12.282H134.368a2.161,2.161,0,0,0,0,4.322c2.154,0,42.232,0,43.279,0A2.161,2.161,0,0,0,177.646,297.054Zm-17.021-10.121h4.164l5.345,10.121h-9.508Z"
            transform="translate(-106.662 -227.595)" fill="#fff" />
    </g>
</svg>  