<svg xmlns="http://www.w3.org/2000/svg" width="99" height="82.373" viewBox="0 0 99 82.373">
    <g id="virtual-lab" transform="translate(0 -43.026)">
        <rect id="Rectangle_1779" data-name="Rectangle 1779" width="33.703" height="4.322"
            transform="translate(14 78.856) rotate(-0.349)" fill="#fff" />
        <path id="Path_966" data-name="Path 966"
            d="M96.839,43.026H2.161A2.161,2.161,0,0,0,0,45.187v64.322a2.161,2.161,0,0,0,2.161,2.161H26.595a4.766,4.766,0,0,1,3.627,8.135,4.4,4.4,0,0,1-3.1,1.273c-.049,0-.1,0-.148,0h-9.1a2.161,2.161,0,0,0,0,4.321H81.124a2.161,2.161,0,0,0,0-4.321H71.86c-4.1-.024-5.993-5.27-3.047-8.087a4.748,4.748,0,0,1,3.581-1.321H96.839A2.161,2.161,0,0,0,99,109.509V45.187A2.161,2.161,0,0,0,96.839,43.026Zm-32.5,78.051H34.674a9.211,9.211,0,0,0-.054-9.408H64.379A9.192,9.192,0,0,0,64.339,121.077Zm30.339-13.729H4.321v-60H94.678Z"
            fill="#fff" />
        <g id="Group_792" data-name="Group 792" transform="translate(11.877 54.89)">
            <path id="Path_967" data-name="Path 967"
                d="M96.083,119.517a18.991,18.991,0,0,0-7.308-6.27v-4.5h4.406a2.161,2.161,0,0,0,0-4.321H74.3a2.161,2.161,0,0,0-2.161,2.161v6.659c-17.883,9.13-11.983,35.422,8.05,36.111C95.569,149.622,104.873,132.136,96.083,119.517ZM90.77,140.808c-9.1,9.073-24.849,2.529-25.005-10.282a14.777,14.777,0,0,1,9.321-13.858,2.161,2.161,0,0,0,1.371-2.011v-5.908h8v5.908a2.16,2.16,0,0,0,1.371,2.011C95.643,120.348,98.323,133.563,90.77,140.808Z"
                transform="translate(-61.467 -104.427)" fill="#fff" />
            <g id="Group_791" data-name="Group 791" transform="translate(45.474 8.52)">
                <path id="Path_968" data-name="Path 968"
                    d="M324.624,152.842H298.961a2.161,2.161,0,0,1,0-4.321h25.662A2.161,2.161,0,0,1,324.624,152.842Z"
                    transform="translate(-296.812 -148.521)" fill="#fff" />
                <path id="Path_969" data-name="Path 969"
                    d="M324.624,274.834H298.961a2.161,2.161,0,0,1,0-4.321h25.662A2.161,2.161,0,0,1,324.624,274.834Z"
                    transform="translate(-296.812 -246.942)" fill="#fff" />
                <path id="Path_970" data-name="Path 970"
                    d="M324.624,213.838H298.961a2.161,2.161,0,0,1,0-4.321h25.662A2.161,2.161,0,0,1,324.624,213.838Z"
                    transform="translate(-296.812 -197.731)" fill="#fff" />
            </g>
        </g>
    </g>
</svg>  