<svg xmlns="http://www.w3.org/2000/svg" width="98.999" height="76.762" viewBox="0 0 98.999 76.762">
    <g id="virtual-lab_3_" data-name="virtual-lab (3)" transform="translate(0 -57.551)">
        <path id="Path_1002" data-name="Path 1002"
            d="M118.82,326.419a8.1,8.1,0,0,1-5.712-13.786h0a8.077,8.077,0,1,1,5.712,13.786ZM116.173,315.7a3.743,3.743,0,1,0,5.294,0,3.747,3.747,0,0,0-5.294,0Z"
            transform="translate(-89.353 -203.895)" fill="#fff" />
        <path id="Path_1003" data-name="Path 1003"
            d="M427.472,371.451c-2.547.062-2.934-3.857-.423-4.291C430.113,366.6,430.587,371.4,427.472,371.451Z"
            transform="translate(-343.177 -249.758)" fill="#fff" />
        <path id="Path_1004" data-name="Path 1004"
            d="M368.991,139.378A8.109,8.109,0,0,1,361,132.457a5.559,5.559,0,0,0-.769-2.16h0a8.073,8.073,0,0,1,13.787-8.4,21.609,21.609,0,0,1,2.972,8.3,8.075,8.075,0,0,1-8,9.187Zm-1.876-17.024a3.755,3.755,0,0,0-3.185,5.686h0a9.87,9.87,0,0,1,1.363,3.836,3.711,3.711,0,0,0,2.813,3.061,3.749,3.749,0,0,0,4.588-4.146,17.3,17.3,0,0,0-2.38-6.643A3.744,3.744,0,0,0,367.115,122.354Z"
            transform="translate(-289.673 -48.775)" fill="#fff" />
        <path id="Path_1005" data-name="Path 1005"
            d="M68.425,139.994a8.1,8.1,0,0,1-7.846-9.977,21.608,21.608,0,0,1,3.766-7.97,8.075,8.075,0,0,1,12.909,9.7,5.562,5.562,0,0,0-.984,2.072h0A8.088,8.088,0,0,1,68.425,139.994Zm2.349-16.819a3.675,3.675,0,0,0-2.969,1.483,17.3,17.3,0,0,0-3.014,6.38,3.739,3.739,0,0,0,7.266,1.763h0a9.865,9.865,0,0,1,1.749-3.677A3.752,3.752,0,0,0,70.774,123.175Z"
            transform="translate(-48.681 -49.449)" fill="#fff" />
        <path id="Path_1006" data-name="Path 1006"
            d="M161.943,200.846a2.167,2.167,0,0,1,0-4.334,3.748,3.748,0,0,0,3.744-3.744,2.167,2.167,0,1,1,4.334,0A8.087,8.087,0,0,1,161.943,200.846Z"
            transform="translate(-128.918 -107.346)" fill="#fff" />
        <path id="Path_1007" data-name="Path 1007"
            d="M396.729,276.039a2.167,2.167,0,0,1,0-4.334,3.748,3.748,0,0,0,3.744-3.744,2.167,2.167,0,1,1,4.334,0A8.087,8.087,0,0,1,396.729,276.039Z"
            transform="translate(-318.344 -168.012)" fill="#fff" />
        <path id="Path_1008" data-name="Path 1008"
            d="M245.369,134.524a8.087,8.087,0,0,1-8.078-8.078c.444-10.717,15.714-10.714,16.156,0A8.087,8.087,0,0,1,245.369,134.524Zm0-11.822a3.744,3.744,0,1,0,3.744,3.744A3.748,3.748,0,0,0,245.369,122.7Z"
            transform="translate(-191.448 -49.101)" fill="#fff" />
        <path id="Path_1009" data-name="Path 1009"
            d="M237.916,269.728a21.78,21.78,0,0,1-21.755-21.755,8.073,8.073,0,0,1,16.146,0,5.616,5.616,0,0,0,5.609,5.609C248.622,254.022,248.627,269.285,237.916,269.728Zm-13.682-25.494a3.743,3.743,0,0,0-3.739,3.739,17.441,17.441,0,0,0,17.421,17.421,3.739,3.739,0,0,0,0-7.478,9.955,9.955,0,0,1-9.944-9.944A3.743,3.743,0,0,0,224.234,244.234Z"
            transform="translate(-174.4 -147.12)" fill="#fff" />
        <path id="Path_1010" data-name="Path 1010"
            d="M331.664,240.04c-3.115-.056-2.641-4.847.423-4.291C334.6,236.185,334.21,240.1,331.664,240.04Z"
            transform="translate(-265.88 -143.736)" fill="#fff" />
        <path id="Path_1011" data-name="Path 1011"
            d="M62.769,285.418c-2.546.06-2.931-3.854-.423-4.293C65.414,280.579,65.882,285.361,62.769,285.418Z"
            transform="translate(-48.933 -180.346)" fill="#fff" />
        <path id="Path_1012" data-name="Path 1012"
            d="M96.832,134.313H2.167A2.167,2.167,0,0,1,0,132.146V59.718a2.167,2.167,0,0,1,2.167-2.167H96.832A2.167,2.167,0,0,1,99,59.718v72.428A2.167,2.167,0,0,1,96.832,134.313Zm-92.5-4.335h90.33V61.885H4.334Z"
            fill="#fff" />
    </g>
</svg>
  