<svg id="flow" xmlns="http://www.w3.org/2000/svg" width="81" height="81" viewBox="0 0 81 81">
  <path id="Path_1135" data-name="Path 1135" d="M312.923,194.832a1.74,1.74,0,0,1-1.74-1.74V177.237H295.59a1.74,1.74,0,0,1,0-3.48h17.333a1.74,1.74,0,0,1,1.74,1.74v17.595A1.74,1.74,0,0,1,312.923,194.832Z" transform="translate(-247.362 -146.268)" fill="#fff"/>
  <path id="Path_1136" data-name="Path 1136" d="M88.33,194.832a1.74,1.74,0,0,1-1.74-1.74V175.5a1.74,1.74,0,0,1,1.74-1.74h17.333a1.74,1.74,0,1,1,0,3.48H90.07v15.854A1.74,1.74,0,0,1,88.33,194.832Z" transform="translate(-72.891 -146.268)" fill="#fff"/>
  <path id="Path_1137" data-name="Path 1137" d="M246.74,75.889a1.74,1.74,0,0,1-1.74-1.74V64.282a1.74,1.74,0,0,1,3.48,0v9.866A1.74,1.74,0,0,1,246.74,75.889Z" transform="translate(-206.24 -52.648)" fill="#fff"/>
  <path id="Path_1138" data-name="Path 1138" d="M99.692,368.638H88.33a1.74,1.74,0,0,1-1.74-1.74V349.3a1.74,1.74,0,0,1,3.48,0v15.854h9.622a1.74,1.74,0,0,1,0,3.48Z" transform="translate(-72.891 -292.586)" fill="#fff"/>
  <path id="Path_1139" data-name="Path 1139" d="M344.693,368.638H333.331a1.74,1.74,0,1,1,0-3.48h9.622V349.3a1.74,1.74,0,0,1,3.48,0V366.9A1.74,1.74,0,0,1,344.693,368.638Z" transform="translate(-279.132 -292.586)" fill="#fff"/>
  <path id="Path_1140" data-name="Path 1140" d="M187.548,13.375h-27.4a1.74,1.74,0,0,1-1.74-1.74V1.74A1.74,1.74,0,0,1,160.15,0h27.4a1.74,1.74,0,0,1,1.74,1.74v9.894A1.74,1.74,0,0,1,187.548,13.375ZM161.89,9.894h23.917V3.48H161.89Z" transform="translate(-133.349)" fill="#fff"/>
  <path id="Path_1141" data-name="Path 1141" d="M187.548,440.833h-27.4a1.74,1.74,0,0,1-1.74-1.74V429.2a1.74,1.74,0,0,1,1.74-1.74h27.4a1.74,1.74,0,0,1,1.74,1.74v9.894A1.74,1.74,0,0,1,187.548,440.833Zm-25.658-3.48h23.917v-6.414H161.89Z" transform="translate(-133.349 -359.833)" fill="#fff"/>
  <g id="Group_878" data-name="Group 878" transform="translate(0 45.083)">
    <g id="Group_877" data-name="Group 877" transform="translate(50.122)">
      <path id="Path_1142" data-name="Path 1142" d="M345.957,298.347h-27.4a1.74,1.74,0,0,1-1.74-1.74v-9.894a1.74,1.74,0,0,1,1.74-1.74h27.4a1.74,1.74,0,0,1,1.74,1.74v9.894A1.74,1.74,0,0,1,345.957,298.347Zm-25.658-3.48h23.917v-6.414H320.3Z" transform="translate(-316.819 -284.972)" fill="#fff"/>
    </g>
    <path id="Path_1143" data-name="Path 1143" d="M29.138,298.347H1.74A1.74,1.74,0,0,1,0,296.607v-9.894a1.74,1.74,0,0,1,1.74-1.74h27.4a1.74,1.74,0,0,1,1.74,1.74v9.894A1.74,1.74,0,0,1,29.138,298.347ZM3.48,294.866H27.4v-6.414H3.48Z" transform="translate(0 -284.972)" fill="#fff"/>
  </g>
  <path id="Path_1144" data-name="Path 1144" d="M205.618,144.1a9.479,9.479,0,0,1-9.469-9.469c.52-12.561,18.419-12.558,18.937,0A9.479,9.479,0,0,1,205.618,144.1Zm0-15.457a5.988,5.988,0,1,0,5.988,5.988A5.995,5.995,0,0,0,205.618,128.647Z" transform="translate(-165.118 -105.406)" fill="#fff"/>
</svg>
