<svg id="Flag_1_" xmlns="http://www.w3.org/2000/svg" width="81" height="81" viewBox="0 0 81 81">
  <g id="Group_875" data-name="Group 875" transform="translate(14.474 4.825)">
    <path id="Path_1133" data-name="Path 1133" d="M144.093,68.587l13.5-15.755a1.739,1.739,0,0,0-1.321-2.871H128.907v-12.9a6.572,6.572,0,0,0-6.565-6.565H93.23a1.74,1.74,0,0,0,0,3.48h29.111a3.089,3.089,0,0,1,3.085,3.085V65.207a6.528,6.528,0,0,0-3.085-.772H93.23a1.74,1.74,0,0,0,0,3.48h17.72V80.649c0,.03,0,.06,0,.09a6.57,6.57,0,0,0,6.474,6.474c.03,0,.06,0,.09,0h38.76a1.74,1.74,0,0,0,1.321-2.873Zm-29.661-.672h7.91a3.085,3.085,0,0,1,0,6.17h-4.825c-.03,0-.06,0-.09,0a6.529,6.529,0,0,0-2.995.769Zm3.085,15.819a3.084,3.084,0,1,1,0-6.168h4.825a6.572,6.572,0,0,0,6.564-6.475c0-.03,0-.06,0-.09V53.441h23.585L140.479,67.455a1.741,1.741,0,0,0,0,2.265l12.012,14.014Z" transform="translate(-91.49 -30.5)" fill="#fff"/>
  </g>
  <g id="Group_876" data-name="Group 876">
    <path id="Path_1134" data-name="Path 1134" d="M21.039,77.52H17.954V6.565a6.565,6.565,0,1,0-13.129,0V77.52H1.74a1.74,1.74,0,0,0,0,3.48h19.3a1.74,1.74,0,0,0,0-3.48ZM8.306,6.565a3.084,3.084,0,1,1,6.168,0V77.52H8.306Z" fill="#fff"/>
  </g>
</svg>
