<svg xmlns="http://www.w3.org/2000/svg" width="200.001" height="162.212" viewBox="0 0 200.001 162.212">
  <path id="Intersection_5" data-name="Intersection 5" d="M203.685,240l-14.326-25.752h-58.1l-8.42,15.162V240H112.665v-8.147H50.173V240H40V182.236a7.269,7.269,0,0,1,7.261-7.261h77.522a7.261,7.261,0,0,1,6.042,11.289l-7.745,11.617a1.434,1.434,0,0,0-.241.8v9.779l.98-1.765,14.007-25.221a22.5,22.5,0,0,0,2.824-10.9V139.883a5.083,5.083,0,0,1-4.8-5.072V114.06a5.087,5.087,0,0,1,5.087-5.087h38.129a5.087,5.087,0,0,1,5.087,5.087v20.751a5.084,5.084,0,0,1-4.215,5.007V167h12.61V138.536a5.087,5.087,0,0,1,5.086-5.087h18.813a5.087,5.087,0,0,1,5.087,5.087V167h6.6V138.536a5.087,5.087,0,0,1,5.087-5.087H240v10.174h-1.691V167H240v10.174h-1.691v46.011A4.315,4.315,0,0,0,240,226.615v10.828a14.516,14.516,0,0,1-11.865-14.254V177.178h-6.6v46.011a14.512,14.512,0,0,1-8.275,13.09l2.07,3.721Zm-.967-22.664,5.558,9.99h0a4.326,4.326,0,0,0,3.081-4.138V177.178h-8.639ZM50.173,221.68h62.492v-23a11.572,11.572,0,0,1,1.949-6.439l4.727-7.089H50.173Zm100.649-51.111a32.7,32.7,0,0,1-4.1,15.841l-9.81,17.665H183.7l-9.822-17.654a32.933,32.933,0,0,1-4.116-15.863V139.9h-18.94Zm31.945,10.905,9.779,17.577V177.178h-11.6A22.393,22.393,0,0,0,182.768,181.474ZM202.719,167h8.639V143.623h-8.639Zm-56.7-37.28h27.955V119.146H146.022ZM86.345,240a5.089,5.089,0,0,1,4.73-3.211H98.4A5.088,5.088,0,0,1,103.13,240Zm4.73-23.255a5.086,5.086,0,1,1,0-10.173H98.4a5.086,5.086,0,1,1,0,10.173Zm0-15.108a5.087,5.087,0,1,1,0-10.174H98.4a5.087,5.087,0,1,1,0,10.174Zm4.943-41.617a7.793,7.793,0,0,1-6.728-3.883l-6.918-11.984a7.793,7.793,0,0,1,0-7.769L89.288,124.4a7.791,7.791,0,0,1,6.728-3.884h13.836a7.793,7.793,0,0,1,6.729,3.884l6.917,11.983a7.788,7.788,0,0,1,0,7.77l-6.917,11.982a7.792,7.792,0,0,1-6.728,3.884Zm-4.143-19.751,5.531,9.578h11.059l5.53-9.578-5.53-9.578H97.405Zm17.983-9.579h0Zm-52.468,7.966a7.792,7.792,0,0,1-6.728-3.884l-6.918-11.983a7.792,7.792,0,0,1,0-7.77l6.917-11.983a7.793,7.793,0,0,1,6.729-3.884H71.225a7.79,7.79,0,0,1,6.728,3.885l6.918,11.982a7.792,7.792,0,0,1,0,7.771l-6.917,11.982a7.792,7.792,0,0,1-6.728,3.884ZM53.247,118.9l5.531,9.578H69.836l5.531-9.578-5.531-9.578H58.777Zm17.983-9.579h0Zm24.788,7.966a7.793,7.793,0,0,1-6.728-3.883l-6.918-11.984a7.794,7.794,0,0,1,0-7.77l6.918-11.982a7.792,7.792,0,0,1,6.728-3.885h13.836a7.792,7.792,0,0,1,6.729,3.885L123.5,93.655a7.788,7.788,0,0,1,0,7.77l-6.917,11.982a7.79,7.79,0,0,1-6.728,3.885ZM91.875,97.54l5.531,9.578h11.059l5.53-9.578-5.53-9.579H97.405Zm17.983-9.579h0Z" transform="translate(-40 -77.788)" fill="#fff" opacity="0.15"/>
</svg>
