<svg xmlns="http://www.w3.org/2000/svg" width="200.001" height="191.899" viewBox="0 0 200.001 191.899">
  <path id="Intersection_3" data-name="Intersection 3" d="M155.98,240a33.659,33.659,0,0,0-23.591-9.559H50.312V240H40V225.285a5.156,5.156,0,0,1,5.156-5.156H48.1V209.084a19.475,19.475,0,0,1,19.453-19.453,164.875,164.875,0,0,0,52.228-8.475c.495-.165.969-.327,1.43-.482,3.919-1.33,7.3-2.479,12.549-2.479A31.386,31.386,0,0,1,160,192.38a31.389,31.389,0,0,1,26.24-14.186c5.245,0,8.629,1.148,12.547,2.479.462.156.936.318,1.431.482A164.885,164.885,0,0,0,240,189.163V199.5a175.152,175.152,0,0,1-43.044-8.564c-.513-.171-1.005-.338-1.484-.5-3.548-1.2-5.689-1.93-9.232-1.93a21.108,21.108,0,0,0-21.084,21.083v16.655a43.926,43.926,0,0,1,22.454-6.117H240v10.313H187.609A33.659,33.659,0,0,0,164.019,240Zm-31.454-49.562c-.478.162-.97.329-1.483.5a175.156,175.156,0,0,1-55.49,9,9.151,9.151,0,0,0-9.14,9.14v11.047h73.975a43.937,43.937,0,0,1,22.455,6.116V209.59a21.107,21.107,0,0,0-21.083-21.083C130.217,188.507,128.075,189.234,124.526,190.438ZM67.262,169.113l-.64-3.2a48.121,48.121,0,0,0-13.2-24.663,5.156,5.156,0,1,1,7.292-7.291,58.394,58.394,0,0,1,16.018,29.931l.641,3.2a5.158,5.158,0,0,1-4.045,6.068,5.25,5.25,0,0,1-1.017.1A5.157,5.157,0,0,1,67.262,169.113Zm153.9-16.427-9.7-9.7-9.7,9.7a5.156,5.156,0,0,1-7.292-7.292l9.7-9.7-9.7-9.7a5.157,5.157,0,1,1,7.293-7.293l9.7,9.7,9.7-9.7A5.156,5.156,0,0,1,228.453,126l-9.7,9.7,9.7,9.7a5.156,5.156,0,1,1-7.292,7.292ZM120.533,149.04V138.947H110.441a5.156,5.156,0,0,1,0-10.312h10.093V118.543a5.156,5.156,0,1,1,10.312,0v10.093h10.093a5.156,5.156,0,0,1,0,10.312H130.846V149.04a5.156,5.156,0,1,1-10.312,0ZM83.276,113.778,68.027,90.9a5.156,5.156,0,0,1,8.581-5.72l15.249,22.873a5.156,5.156,0,0,1-8.581,5.72ZM224.974,95.5a5.158,5.158,0,0,1,0-7.293l7.625-7.625a5.158,5.158,0,0,1,7.293,0q.055.056.109.112v7.068q-.053.057-.109.112L232.267,95.5a5.157,5.157,0,0,1-7.293,0Zm-51.062-7.458a5.155,5.155,0,0,1,5.154-5.156h0a5.156,5.156,0,1,1-5.159,5.156ZM141.1,87.878a5.157,5.157,0,0,1,0-7.292l30.974-30.974a5.156,5.156,0,1,1,7.293,7.292L148.4,87.878a5.157,5.157,0,0,1-7.293,0Zm-5.315-34.62a5.154,5.154,0,0,1,5.153-5.156h.005a5.156,5.156,0,1,1-5.159,5.156Z" transform="translate(-40 -48.101)" fill="#fff" opacity="0.15"/>
</svg>
