<svg xmlns="http://www.w3.org/2000/svg" width="200.001" height="198.247" viewBox="0 0 200.001 198.247">
  <path id="Intersection_2" data-name="Intersection 2" d="M156.467,240q-.057-.054-.113-.11a33.671,33.671,0,0,0-23.964-9.927H50.312V240H40V224.807a5.156,5.156,0,0,1,5.156-5.156H48.1V208.607a19.474,19.474,0,0,1,19.452-19.453,164.859,164.859,0,0,0,52.229-8.475c.495-.165.971-.327,1.432-.483,3.919-1.329,7.3-2.478,12.547-2.478A31.387,31.387,0,0,1,160,191.9a31.389,31.389,0,0,1,26.24-14.186c5.245,0,8.628,1.148,12.546,2.478.462.157.937.319,1.432.483A164.842,164.842,0,0,0,240,188.686v10.34a175.11,175.11,0,0,1-43.044-8.565c-.513-.171-1.007-.338-1.486-.5-3.547-1.2-5.688-1.931-9.23-1.931a21.107,21.107,0,0,0-21.084,21.083v16.655a43.937,43.937,0,0,1,22.454-6.117H240v10.313H187.61a33.671,33.671,0,0,0-23.964,9.927q-.056.056-.113.11Zm-31.938-50.04c-.479.162-.972.33-1.486.5a175.157,175.157,0,0,1-55.49,9,9.151,9.151,0,0,0-9.14,9.139v11.047h73.976a43.934,43.934,0,0,1,22.454,6.116V209.113A21.107,21.107,0,0,0,133.76,188.03C130.217,188.03,128.075,188.756,124.529,189.96Zm50.747-34.69a90.125,90.125,0,0,1-15.276-7.9,90.065,90.065,0,0,1-15.277,7.9,46.624,46.624,0,0,1-16.712,3.6c-6.106,0-11.151-1.829-14.788-5.466-6.578-6.578-7.241-17.765-1.866-31.5a90.131,90.131,0,0,1,7.9-15.277,90.131,90.131,0,0,1-7.9-15.277c-5.375-13.735-4.712-24.922,1.866-31.5s17.764-7.241,31.5-1.867A90.1,90.1,0,0,1,160,65.883a90.139,90.139,0,0,1,15.277-7.9c13.736-5.374,24.922-4.712,31.5,1.867s7.24,17.765,1.866,31.5a90.065,90.065,0,0,1-7.9,15.277,90.071,90.071,0,0,1,7.9,15.277c5.375,13.735,4.712,24.922-1.866,31.5-3.637,3.636-8.683,5.465-14.788,5.466A46.613,46.613,0,0,1,175.276,155.271Zm-54.315-29.608c-3.68,9.4-3.847,17.049-.445,20.451s11.046,3.235,20.451-.445A74.942,74.942,0,0,0,150.8,140.9a142.669,142.669,0,0,1-25.068-25.068A74.772,74.772,0,0,0,120.961,125.663Zm61.555,3.481A140.909,140.909,0,0,1,169.2,140.9a74.837,74.837,0,0,0,9.834,4.772c9.4,3.679,17.05,3.846,20.451.445s3.235-11.047-.445-20.451a74.884,74.884,0,0,0-4.771-9.834A141.03,141.03,0,0,1,182.516,129.144ZM144.776,91.4a128.651,128.651,0,0,0-13.071,15.224,128.651,128.651,0,0,0,13.071,15.224A128.653,128.653,0,0,0,160,134.923a128.653,128.653,0,0,0,15.224-13.071,128.735,128.735,0,0,0,13.071-15.224A132.236,132.236,0,0,0,160,78.334,128.652,128.652,0,0,0,144.776,91.4Zm-24.26-24.261c-3.4,3.4-3.235,11.047.445,20.451a74.827,74.827,0,0,0,4.771,9.834A142.634,142.634,0,0,1,150.8,72.36a74.818,74.818,0,0,0-9.833-4.771,36.777,36.777,0,0,0-12.928-2.883C124.741,64.706,122.143,65.516,120.515,67.144Zm58.518.446A74.941,74.941,0,0,0,169.2,72.36a142.633,142.633,0,0,1,25.069,25.068,74.93,74.93,0,0,0,4.771-9.833c3.679-9.4,3.847-17.05.445-20.451-1.627-1.627-4.226-2.437-7.523-2.437A36.757,36.757,0,0,0,179.033,67.589ZM70.981,152.374a5.154,5.154,0,0,1,5.154-5.156h0a5.157,5.157,0,1,1-5.159,5.156Zm160.114-11.436a5.155,5.155,0,0,1,5.154-5.156h0A5.142,5.142,0,0,1,240,137.4v7.084a5.158,5.158,0,0,1-8.906-3.542Zm-76.244-34.31A5.154,5.154,0,0,1,160,101.472h0a5.156,5.156,0,1,1-5.159,5.156ZM55.732,83.755A5.155,5.155,0,0,1,60.886,78.6h0a5.156,5.156,0,1,1-5.159,5.156Zm182.987-38.6a5.137,5.137,0,0,1,1.282-3.4v6.8A5.134,5.134,0,0,1,238.719,45.156Z" transform="translate(-40 -41.753)" fill="#fff" opacity="0.15"/>
</svg>
