<svg xmlns="http://www.w3.org/2000/svg" width="37.767" height="36.508"><g transform="translate(0 -8)"><g data-name="Group 3" transform="translate(13.662 10.65)"><g data-name="Group 2" transform="translate(0 0)"><rect data-name="Rectangle 91" width="1" height="1" transform="translate(0.338 -0.142)" fill="#2ab170"/></g></g><g data-name="Group 5" transform="translate(16.632 10.65)"><g data-name="Group 4" transform="translate(0 0)"><rect data-name="Rectangle 92" width="1" height="1" transform="translate(0.368 -0.142)" fill="#2ab170"/></g></g><g data-name="Group 7" transform="translate(19.008 10.65)"><g data-name="Group 6" transform="translate(0 0)"><rect data-name="Rectangle 93" width="1" height="1" transform="translate(-0.008 -0.142)" fill="#2ab170"/></g></g><g data-name="Group 9" transform="translate(2.518 15.553)"><g data-name="Group 8" transform="translate(0 0)"><path data-name="Path 50" d="M35.777,104A3.78,3.78,0,0,0,32,107.777v13.848a3.777,3.777,0,0,0,7.553,0V107.777A3.78,3.78,0,0,0,35.777,104Zm2.518,17.625a2.518,2.518,0,0,1-5.036,0V107.777a2.518,2.518,0,0,1,5.036,0Z" transform="translate(-32 -104)" fill="#2ab170"/></g></g><g data-name="Group 11" transform="translate(0 8)"><g data-name="Group 10" transform="translate(0 0)"><path data-name="Path 51" d="M34.62,13.036H32.732V8.629A.629.629,0,0,0,32.1,8H11.96a.629.629,0,0,0-.629.629v4.406H3.147A3.151,3.151,0,0,0,0,16.183v21.4a3.151,3.151,0,0,0,3.147,3.147H11.33v3.147a.629.629,0,0,0,.629.629H32.1a.629.629,0,0,0,.629-.629V40.732H34.62a3.151,3.151,0,0,0,3.147-3.147v-21.4A3.151,3.151,0,0,0,34.62,13.036ZM12.589,9.259H31.473v6.295H12.589ZM31.473,43.25H12.589V40.732H31.473ZM36.508,35.7H32.732V31.919h3.777Zm0-7.553H32.1a.629.629,0,1,0,0,1.259h4.406V30.66H32.1a.629.629,0,0,0-.629.629v5.036a.629.629,0,0,0,.629.629h4.406v.629a1.888,1.888,0,0,1-1.888,1.888H3.147a1.888,1.888,0,0,1-1.888-1.888v-21.4a1.888,1.888,0,0,1,1.888-1.888H11.33v1.888a.629.629,0,0,0,.629.629H32.1a.629.629,0,0,0,.629-.629V14.295H34.62a1.888,1.888,0,0,1,1.888,1.888Z" transform="translate(0 -8)" fill="#2ab170"/></g></g><g data-name="Group 13" transform="translate(11.33 18.071)"><g data-name="Group 12"><path data-name="Path 52" d="M163.513,136H144.629a.629.629,0,0,0-.629.629v3.777a.629.629,0,0,0,.629.629h18.884a.629.629,0,0,0,.629-.629v-3.777A.629.629,0,0,0,163.513,136Zm-.629,3.777H145.259v-2.518h17.625Z" transform="translate(-144 -136)" fill="#2ab170"/></g></g><g data-name="Group 15" transform="translate(15.107 24.366)"><g data-name="Group 14" transform="translate(0 0)"><path data-name="Path 53" d="M193.888,216a1.888,1.888,0,1,0,1.888,1.888A1.888,1.888,0,0,0,193.888,216Zm0,2.518a.629.629,0,1,1,.629-.629A.629.629,0,0,1,193.888,218.518Z" transform="translate(-192 -216)" fill="#2ab170"/></g></g><g data-name="Group 17" transform="translate(15.107 29.402)"><g data-name="Group 16"><path data-name="Path 54" d="M193.888,280a1.888,1.888,0,1,0,1.888,1.888A1.888,1.888,0,0,0,193.888,280Zm0,2.518a.629.629,0,1,1,.629-.629A.629.629,0,0,1,193.888,282.518Z" transform="translate(-192 -280)" fill="#2ab170"/></g></g><g data-name="Group 19" transform="translate(15.107 34.437)"><g data-name="Group 18"><path data-name="Path 55" d="M193.888,344a1.888,1.888,0,1,0,1.888,1.888A1.888,1.888,0,0,0,193.888,344Zm0,2.518a.629.629,0,1,1,.629-.629A.629.629,0,0,1,193.888,346.518Z" transform="translate(-192 -344)" fill="#2ab170"/></g></g><g data-name="Group 21" transform="translate(20.143 24.366)"><g data-name="Group 20" transform="translate(0 0)"><path data-name="Path 56" d="M257.888,216a1.888,1.888,0,1,0,1.888,1.888A1.888,1.888,0,0,0,257.888,216Zm0,2.518a.629.629,0,1,1,.629-.629A.63.63,0,0,1,257.888,218.518Z" transform="translate(-256 -216)" fill="#2ab170"/></g></g><g data-name="Group 23" transform="translate(20.143 29.402)"><g data-name="Group 22"><path data-name="Path 57" d="M257.888,280a1.888,1.888,0,1,0,1.888,1.888A1.888,1.888,0,0,0,257.888,280Zm0,2.518a.629.629,0,1,1,.629-.629A.629.629,0,0,1,257.888,282.518Z" transform="translate(-256 -280)" fill="#2ab170"/></g></g><g data-name="Group 25" transform="translate(20.143 34.437)"><g data-name="Group 24"><path data-name="Path 58" d="M257.888,344a1.888,1.888,0,1,0,1.888,1.888A1.888,1.888,0,0,0,257.888,344Zm0,2.518a.629.629,0,1,1,.629-.629A.629.629,0,0,1,257.888,346.518Z" transform="translate(-256 -344)" fill="#2ab170"/></g></g><g data-name="Group 27" transform="translate(25.178 24.366)"><g data-name="Group 26" transform="translate(0 0)"><path data-name="Path 59" d="M321.888,216a1.888,1.888,0,1,0,1.888,1.888A1.888,1.888,0,0,0,321.888,216Zm0,2.518a.629.629,0,1,1,.629-.629A.629.629,0,0,1,321.888,218.518Z" transform="translate(-320 -216)" fill="#2ab170"/></g></g><g data-name="Group 29" transform="translate(25.178 29.402)"><g data-name="Group 28"><path data-name="Path 60" d="M321.888,280a1.888,1.888,0,1,0,1.888,1.888A1.888,1.888,0,0,0,321.888,280Zm0,2.518a.629.629,0,1,1,.629-.629A.629.629,0,0,1,321.888,282.518Z" transform="translate(-320 -280)" fill="#2ab170"/></g></g><g data-name="Group 31" transform="translate(25.178 34.437)"><g data-name="Group 30"><path data-name="Path 61" d="M321.888,344a1.888,1.888,0,1,0,1.888,1.888A1.888,1.888,0,0,0,321.888,344Zm0,2.518a.629.629,0,1,1,.629-.629A.629.629,0,0,1,321.888,346.518Z" transform="translate(-320 -344)" fill="#2ab170"/></g></g><g data-name="Group 33" transform="translate(33.991 19.33)"><g data-name="Group 32"><path data-name="Path 62" d="M432.629,152a.629.629,0,0,0-.629.629v6.295a.629.629,0,0,0,1.259,0v-6.295A.629.629,0,0,0,432.629,152Z" transform="translate(-432 -152)" fill="#2ab170"/></g></g></g></svg>