<svg xmlns="http://www.w3.org/2000/svg" width="43.448" height="43.449"><g transform="translate(-0.006)"><g data-name="Group 45" transform="translate(10.107)"><g data-name="Group 44"><path data-name="Path 64" d="M119.886,0a.849.849,0,1,0,0,1.7,8.819,8.819,0,0,1,8.694,8.92.849.849,0,0,0,1.7,0A10.518,10.518,0,0,0,119.886,0Z" transform="translate(-119.037)" fill="#2ab170"/></g></g><g data-name="Group 47" transform="translate(10.104 4.026)"><g data-name="Group 46"><path data-name="Path 65" d="M119.853,47.447a.849.849,0,0,0,0,1.7,4.834,4.834,0,0,1,4.761,4.894.849.849,0,0,0,1.7,0A6.533,6.533,0,0,0,119.853,47.447Z" transform="translate(-119.004 -47.447)" fill="#2ab170"/></g></g><g data-name="Group 49" transform="translate(10.12 7.735)"><g data-name="Group 48"><path data-name="Path 66" d="M120.047,91.155a.849.849,0,1,0,0,1.7,1.137,1.137,0,0,1,1.112,1.159.849.849,0,0,0,1.7,0A2.836,2.836,0,0,0,120.047,91.155Z" transform="translate(-119.198 -91.155)" fill="#2ab170"/></g></g><g data-name="Group 51" transform="translate(23.254 6.726)"><g data-name="Group 50"><path data-name="Path 67" d="M289.627,79.265h-1.881a.849.849,0,0,0,0,1.7h1.881a2.846,2.846,0,0,1,2.843,2.843V95.326a2.839,2.839,0,0,1-1.081,2.229V95.336a3.6,3.6,0,0,0-2.938-3.536l-.549-.1a3.83,3.83,0,0,0,.189-1.19v-1.95a3.846,3.846,0,1,0-7.691,0v1.95a3.833,3.833,0,0,0,.189,1.19l-.549.1a3.6,3.6,0,0,0-2.938,3.536V97.8a2.844,2.844,0,0,1-1.438-2.47V83.806a2.846,2.846,0,0,1,2.843-2.843h2.023a.849.849,0,0,0,0-1.7H278.51a4.546,4.546,0,0,0-4.541,4.541V95.326a4.546,4.546,0,0,0,4.541,4.541h4.271v2.44a.849.849,0,0,0,1.447.6l3.061-3.042h2.339a4.546,4.546,0,0,0,4.541-4.541V83.806A4.546,4.546,0,0,0,289.627,79.265ZM282.1,88.557a2.148,2.148,0,1,1,4.3,0v1.95a2.148,2.148,0,1,1-4.3,0Zm7.594,9.611-.064,0h-2.689a.849.849,0,0,0-.6.247l-1.863,1.851V99.018a.849.849,0,0,0-.849-.849H278.8V95.336a1.9,1.9,0,0,1,1.551-1.868l1.2-.223a3.838,3.838,0,0,0,5.395,0l1.2.223a1.9,1.9,0,0,1,1.551,1.868v2.832Z" transform="translate(-273.969 -79.265)" fill="#2ab170"/></g></g><g data-name="Group 53" transform="translate(32.166 6.727)"><g data-name="Group 52"><path data-name="Path 68" d="M380.429,79.518a.848.848,0,1,0,.249.6A.851.851,0,0,0,380.429,79.518Z" transform="translate(-378.98 -79.269)" fill="#2ab170"/></g></g><g data-name="Group 55" transform="translate(14.33 28.302)"><g data-name="Group 54"><path data-name="Path 69" d="M170.255,333.756a.848.848,0,1,0,.249.6A.853.853,0,0,0,170.255,333.756Z" transform="translate(-168.806 -333.507)" fill="#2ab170"/></g></g><g data-name="Group 57" transform="translate(0.006 8.354)"><g data-name="Group 56" transform="translate(0)"><path data-name="Path 70" d="M34.356,126.318l-6.5-6.5a2.547,2.547,0,0,0-3.237-.3l-4.15,2.838a.849.849,0,0,1-1.079-.1l-1.372-1.372a.849.849,0,1,0-1.2,1.2l1.372,1.372a2.547,2.547,0,0,0,3.237.3l4.15-2.837a.849.849,0,0,1,1.079.1l6.5,6.5a.85.85,0,0,1,0,1.2,10.706,10.706,0,0,1-15.123,0l-13.2-13.2a10.694,10.694,0,0,1,0-15.123.849.849,0,0,1,1.2,0l6.5,6.5a.849.849,0,0,1,.1,1.079l-2.837,4.15a2.547,2.547,0,0,0,.3,3.237l2.063,2.063a.849.849,0,0,0,1.2-1.2L11.3,114.16a.849.849,0,0,1-.1-1.079l2.837-4.15a2.548,2.548,0,0,0-.3-3.237l-6.5-6.5a2.549,2.549,0,0,0-3.6,0,12.405,12.405,0,0,0,0,17.524l13.2,13.2a12.4,12.4,0,0,0,17.523,0A2.549,2.549,0,0,0,34.356,126.318Z" transform="translate(-0.006 -98.447)" fill="#2ab170"/></g></g><g data-name="Group 59" transform="translate(4.845 15.476)"><g data-name="Group 58"><path data-name="Path 71" d="M63.621,187.758l-5.145-5.145a.849.849,0,0,0-1.2,1.2l5.145,5.145a.849.849,0,1,0,1.2-1.2Z" transform="translate(-57.027 -182.365)" fill="#2ab170"/></g></g><g data-name="Group 61" transform="translate(24.267 34.898)"><g data-name="Group 60"><path data-name="Path 72" d="M292.76,416.9l-5.413-5.413a.849.849,0,0,0-1.2,1.2l5.413,5.413a.849.849,0,1,0,1.2-1.2Z" transform="translate(-285.898 -411.235)" fill="#2ab170"/></g></g></g></svg>