<svg xmlns="http://www.w3.org/2000/svg" width="37.918" height="38.091"><g transform="translate(-1.15)"><g data-name="Group 35" transform="translate(1.15)"><g data-name="Group 34"><path data-name="Path 63" d="M32.957,10.272V5.061H26.441L20.113,0,13.784,5.061H7.268v5.211l-6.119,4.9V38.091H39.068V15.169Zm0,1.567,4.529,3.622-4.529,3.622ZM20.113,1.567l4.371,3.494H15.741ZM8.491,6.291H31.735V20.065l-11.622,9.3-11.622-9.3V6.291ZM7.269,11.84v7.243L2.74,15.461Zm-4.889,4.9L13.087,25.3,2.38,36.006Zm.862,20.133,10.8-10.8,6.074,4.859,6.074-4.859,10.8,10.8Zm34.612-.862h-.007L27.146,25.3l10.707-8.563Z" transform="translate(-1.15)" fill="#2ab170"/></g></g><g data-name="Group 37" transform="translate(10.943 8.735)"><g data-name="Group 36"><rect data-name="Rectangle 94" width="17.733" height="1.222" fill="#2ab170"/></g></g><g data-name="Group 39" transform="translate(10.943 13.017)"><g data-name="Group 38"><rect data-name="Rectangle 95" width="17.733" height="1.222" fill="#2ab170"/></g></g><g data-name="Group 41" transform="translate(23.779 17.298)"><g data-name="Group 40"><rect data-name="Rectangle 96" width="4.896" height="1.222" fill="#2ab170"/></g></g><g data-name="Group 43" transform="translate(10.943 17.298)"><g data-name="Group 42"><rect data-name="Rectangle 97" width="7.341" height="1.222" fill="#2ab170"/></g></g></g></svg>