<svg xmlns="http://www.w3.org/2000/svg" width="37.767" height="43.869"><g data-name="Layer 2" transform="translate(-8.75 -4.98)"><path data-name="Path 44" d="M54.041,37.522c-1.764-1.832-4.6.975-2.773,2.768S55.859,39.3,54.041,37.522Zm-1.389,2.125a.746.746,0,1,1,.6-.731A.746.746,0,0,1,52.653,39.647Z" transform="translate(-21.496 -16.378)" fill="#2ab170"/><path data-name="Path 45" d="M11.152,44.74H9.359a.609.609,0,0,0-.609.609v2.89a.609.609,0,0,0,.609.609H45.908a.609.609,0,0,0,.609-.609V45.35a.609.609,0,0,0-.609-.609H44.129a35.313,35.313,0,0,0-9.035-22.475,3.9,3.9,0,0,0-.75-2.061l4.362-4.386c.692-.648-.775-1.506-1.082-1.949l3.226-3.226.673.682c.551.565,1.428-.307.863-.858-.039-.054-1.077-1.048-1.1-1.111-.789-.794-3.47-3.46-4.215-4.2-.551-.551-1.433.322-.863.872l.673.673L33.657,9.931c-.439-.312-1.3-1.774-1.949-1.082L17.4,23.157c-.546.521.249,1.1.59,1.462-.283.487-2.407,1.759-1.613,2.476l4.084,4.089a.629.629,0,0,0,.434.175.609.609,0,0,0,.429-.175l1.613-1.613c.351.341.931,1.135,1.462.59l4.435-4.435a3.9,3.9,0,0,0,1.857.707c.439,1.594,1.9,7.631-.341,10.7a4.781,4.781,0,0,1-4.167,1.813H22.6V37.479h3.587a.609.609,0,0,0,.609-.609V34a.609.609,0,0,0-.609-.609H10.29A.6.6,0,0,0,9.681,34v2.895a.6.6,0,0,0,.609.609h3.587v1.73c-2.154,1.17-2.622,4.2-2.724,5.507ZM45.3,47.63H9.968V45.959H45.3Zm-8.587-2.89c-1.106-7.851-.848-13.6.716-15.385a1.574,1.574,0,0,1,.872-.551,33.425,33.425,0,0,1,4.62,15.955ZM31.157,25.248c-3.543.054-3.553-5.526,0-5.473,3.543-.034,3.543,5.541,0,5.487ZM37.746,7.563l2.242,2.247-3.226,3.226-2.247-2.247ZM20.9,29.882l-3.226-3.231,1.179-1.194,3.226,3.226Zm3.08-1.014L18.7,23.586,32.141,10.141c1.335,1.35,3.9,3.933,5.273,5.268l-3.9,3.923c-3.494-2.68-8.2,2.037-5.526,5.526Zm7.359,9c2.466-3.372,1.16-9.391.609-11.462a3.972,3.972,0,0,0,2.924-2.544,34.435,34.435,0,0,1,2.783,3.85,2.88,2.88,0,0,0-1.15.828c-2.437,2.812-1.73,11.13-1.023,16.2h-23.1c.107-1.209.551-3.855,2.359-4.561H26.186A5.991,5.991,0,0,0,31.337,37.864ZM10.9,34.609H25.577v1.676H10.9ZM21.381,37.5v1.462H15.095V37.5Z" fill="#2ab170"/></g></svg>