<svg xmlns="http://www.w3.org/2000/svg" width="36.218" height="29.282"><g data-name="book (2)" transform="translate(0 -49.038)"><g data-name="Group 871" transform="translate(4.628 53.659)"><g data-name="Group 868" transform="translate(0 9.242)"><path data-name="Path 1120" d="M74.3,246.595H66.213a.778.778,0,0,1,0-1.556H74.3A.778.778,0,0,1,74.3,246.595Z" transform="translate(-65.44 -245.039)" fill="#31b170"/></g><g data-name="Group 869" transform="translate(17.328 13.862)"><path data-name="Path 1121" d="M319.3,311.929h-8.086a.778.778,0,0,1,0-1.556H319.3A.778.778,0,0,1,319.3,311.929Z" transform="translate(-310.44 -310.373)" fill="#31b170"/></g><g data-name="Group 870" transform="translate(17.324)"><path data-name="Path 1122" d="M319.245,120.55h-8.086a.778.778,0,0,1-.778-.778v-4.621a.778.778,0,0,1,.778-.778h8.086a.778.778,0,0,1,.778.778v4.621A.778.778,0,0,1,319.245,120.55Zm-7.308-1.556h6.53v-3.065h-6.53Z" transform="translate(-310.381 -114.373)" fill="#31b170"/></g></g><g data-name="Group 872" transform="translate(0 49.038)"><path data-name="Path 1123" d="M74.3,310.373H66.213a.778.778,0,0,0,0,1.556H74.3A.778.778,0,0,0,74.3,310.373Z" transform="translate(-60.811 -291.89)" fill="#31b170"/><path data-name="Path 1124" d="M35.437,49.038H21.575a4.236,4.236,0,0,0-3.466,1.795,4.236,4.236,0,0,0-3.466-1.795H.781A.778.778,0,0,0,0,49.816c-.01,3.354.007,24.938,0,27.725a.778.778,0,0,0,.778.778c8.637-.006,26.02,0,34.656,0a.778.778,0,0,0,.778-.778c-.018-2.667.013-24.491,0-27.725A.778.778,0,0,0,35.437,49.038ZM19.674,51.381a2.67,2.67,0,0,1,1.9-.787H34.659V72.142H21.575a3.506,3.506,0,0,0-2.688.959V53.282A2.671,2.671,0,0,1,19.674,51.381ZM1.559,50.594H14.643a2.687,2.687,0,0,1,2.688,2.688V73.1a3.6,3.6,0,0,0-2.688-.959H1.559V50.594Zm0,23.1H14.643a2.7,2.7,0,0,1,2.688,2.688v.377H1.559V73.7Zm33.1,3.065H18.887v-.377A2.7,2.7,0,0,1,21.575,73.7H34.659Z" transform="translate(0 -49.038)" fill="#31b170"/><path data-name="Path 1125" d="M311.213,246.595H319.3a.778.778,0,0,0,0-1.556h-8.086A.778.778,0,0,0,311.213,246.595Z" transform="translate(-288.483 -231.177)" fill="#31b170"/><path data-name="Path 1126" d="M74.245,114.373H66.159a.778.778,0,0,0-.778.778v4.621a.778.778,0,0,0,.778.778h8.086a.778.778,0,0,0,.778-.778v-4.621A.778.778,0,0,0,74.245,114.373Zm-.778,4.621h-6.53v-3.065h6.53Z" transform="translate(-60.757 -109.752)" fill="#31b170"/></g></g></svg>