<svg xmlns="http://www.w3.org/2000/svg" width="30.002" height="30.002" viewBox="0 0 30.002 30.002">
  <g id="_x39_06_x2C__Chat_Bubble_x2C__Compose_Message_x2C__Edit" transform="translate(-26 -26)">
    <g id="Group_90476" data-name="Group 90476" transform="translate(26 26)">
      <path id="Path_452373" data-name="Path 452373" d="M53.784,26H28.218A2.22,2.22,0,0,0,26,28.218V44.653a2.22,2.22,0,0,0,2.218,2.218h2.348v4.566a.652.652,0,0,0,1.06.509l6.344-5.075h6.293v6.522a2.609,2.609,0,1,0,5.218,0V46.871h4.3A2.22,2.22,0,0,0,56,44.653V28.218A2.22,2.22,0,0,0,53.784,26ZM45.566,42.958h2.609v9.131H45.566Zm.5-1.3.8-1.341.8,1.341Zm.8,13.044a1.306,1.306,0,0,1-1.3-1.3h2.609A1.306,1.306,0,0,1,46.871,54.7ZM54.7,44.653a.914.914,0,0,1-.913.913h-4.3c0-3.463,0-3.257-.005-3.341a.642.642,0,0,0-.083-.247c-.054-.092-1.219-2.032-1.961-3.269a.653.653,0,0,0-1.119,0c-.376.627-1.91,3.183-1.961,3.269a.642.642,0,0,0-.083.247c-.01.085,0-.114-.005,3.341H37.74a.652.652,0,0,0-.407.143l-5.463,4.37V46.219a.652.652,0,0,0-.652-.652h-3a.914.914,0,0,1-.913-.913V28.218a.914.914,0,0,1,.913-.913H53.784a.914.914,0,0,1,.913.913Z" transform="translate(-26 -26)" fill="#ccc"/>
      <path id="Path_452374" data-name="Path 452374" d="M107.523,86H86.652a.652.652,0,0,0,0,1.3h20.871a.652.652,0,1,0,0-1.3Z" transform="translate(-82.087 -82.087)" fill="#ccc"/>
      <path id="Path_452375" data-name="Path 452375" d="M107.523,146H86.652a.652.652,0,1,0,0,1.3h20.871a.652.652,0,1,0,0-1.3Z" transform="translate(-82.087 -138.173)" fill="#ccc"/>
      <path id="Path_452376" data-name="Path 452376" d="M99.044,206H86.652a.652.652,0,0,0,0,1.3H99.044a.652.652,0,1,0,0-1.3Z" transform="translate(-82.087 -194.26)" fill="#ccc"/>
    </g>
  </g>
</svg>
