<svg xmlns="http://www.w3.org/2000/svg" xmlns:xlink="http://www.w3.org/1999/xlink" width="31.229" height="31.229" viewBox="0 0 31.229 31.229">
  <defs>
    <clipPath id="clip-path">
      <path id="path3592" d="M0-682.665H31.229v31.229H0Z" transform="translate(0 682.665)" fill="#fff"/>
    </clipPath>
  </defs>
  <g id="g3582" transform="translate(0 682.665)">
    <g id="g3584" transform="translate(26.225 -677.66)">
      <path id="path3586" d="M0,0H0" transform="translate(0)" fill="none" stroke="#01377e" stroke-linecap="round" stroke-linejoin="round" stroke-miterlimit="10" stroke-width="1.5"/>
    </g>
    <g id="g3588" transform="translate(0 -682.665)">
      <g id="g3590" clip-path="url(#clip-path)">
        <g id="g3596" transform="translate(0.61 0.61)">
          <path id="path3598" d="M-490.329-55.018A15.01,15.01,0,0,0-509.44-53.26h0A15.008,15.008,0,0,0-510.9-33.735l-1.155,4.311,4.311-1.155A15.008,15.008,0,0,0-488.22-32.04h0a15.01,15.01,0,0,0,1.757-19.112" transform="translate(513.835 57.655)" fill="none" stroke="#01377e" stroke-linecap="round" stroke-linejoin="round" stroke-miterlimit="10" stroke-width="1.5"/>
        </g>
        <g id="g3600" transform="translate(10.214 6.201)">
          <path id="path3602" d="M-27.731-114.492a1.308,1.308,0,0,1-1.265-1.7,5.472,5.472,0,0,1,1.432-2.263,5.462,5.462,0,0,1,4.059-1.517,5.467,5.467,0,0,1,3.6,1.638,5.467,5.467,0,0,1,1.638,3.6,5.518,5.518,0,0,1-3.026,5.177,2.075,2.075,0,0,0-1.161,1.855h0A1.308,1.308,0,0,1-23.76-106.4h-.005a1.308,1.308,0,0,1-1.308-1.308h0a4.683,4.683,0,0,1,2.6-4.2,2.893,2.893,0,0,0,1.586-2.715,3.014,3.014,0,0,0-2.742-2.742,2.862,2.862,0,0,0-2.129.795,2.867,2.867,0,0,0-.741,1.156A1.325,1.325,0,0,1-27.731-114.492Z" transform="translate(29.06 119.981)" fill="none" stroke="#01377e" stroke-linecap="round" stroke-linejoin="round" stroke-miterlimit="10" stroke-width="1.5"/>
        </g>
        <g id="g3604" transform="translate(14.201 22.407)">
          <path id="path3606" d="M-54.672-27.336a1.31,1.31,0,0,1-1.31,1.31,1.31,1.31,0,0,1-1.31-1.31,1.31,1.31,0,0,1,1.31-1.31A1.31,1.31,0,0,1-54.672-27.336Z" transform="translate(57.293 28.647)" fill="none" stroke="#01377e" stroke-linecap="round" stroke-linejoin="round" stroke-miterlimit="10" stroke-width="1.5"/>
        </g>
      </g>
    </g>
  </g>
</svg>
