<svg xmlns="http://www.w3.org/2000/svg" xmlns:xlink="http://www.w3.org/1999/xlink" width="20" height="20" viewBox="0 0 20 20">
  <defs>
    <clipPath id="clip-path">
      <rect id="Rectangle_16964" data-name="Rectangle 16964" width="20" height="20" transform="translate(1455)" fill="#2ab170"/>
    </clipPath>
  </defs>
  <g id="Mask_Group_284" data-name="Mask Group 284" transform="translate(-1455)" clip-path="url(#clip-path)">
    <g id="ARROW_48" data-name="ARROW 48" transform="translate(1455 0)">
      <path id="Path_452117" data-name="Path 452117" d="M19.062,10.662a.938.938,0,0,0-.938.938v3.775a2.753,2.753,0,0,1-2.75,2.75H4.632a2.753,2.753,0,0,1-2.75-2.75V4.632a2.753,2.753,0,0,1,2.75-2.75H8.407a.938.938,0,0,0,0-1.876H4.632A4.631,4.631,0,0,0,.006,4.632V15.374A4.631,4.631,0,0,0,4.632,20H15.374A4.631,4.631,0,0,0,20,15.374V11.6a.938.938,0,0,0-.938-.938Z" transform="translate(-0.006 0)" fill="#2ab170"/>
      <path id="Path_452118" data-name="Path 452118" d="M19.042,0h-5.83a.938.938,0,0,0-.938.92.955.955,0,0,0,.959.956H16.8L9.333,9.347a.938.938,0,0,0,1.326,1.326L18.131,3.2V6.786a.938.938,0,1,0,1.876,0V.964A.964.964,0,0,0,19.042,0Z" transform="translate(-0.006 0)" fill="#2ab170"/>
    </g>
  </g>
</svg>
