<svg xmlns="http://www.w3.org/2000/svg" xmlns:xlink="http://www.w3.org/1999/xlink" width="100" height="100" viewBox="0 0 100 100">
  <defs>
    <clipPath id="clip-path">
      <rect id="Rectangle_17302" data-name="Rectangle 17302" width="100" height="100" transform="translate(415 716)" fill="#fff"/>
    </clipPath>
  </defs>
  <g id="Mask_Group_414" data-name="Mask Group 414" transform="translate(-415 -716)" clip-path="url(#clip-path)">
    <g id="math" transform="translate(415 716)">
      <path id="Path_452676" data-name="Path 452676" d="M97.852,73.366H96.625v-4.6a8.114,8.114,0,0,0-8.105-8.105,68.7,68.7,0,0,1-21.762-3.531l-.6-.2a14.613,14.613,0,0,0-5.228-1.033A13.078,13.078,0,0,0,50,61.8a13.078,13.078,0,0,0-10.933-5.911,14.614,14.614,0,0,0-5.229,1.033l-.6.2A68.7,68.7,0,0,1,11.48,60.658a8.114,8.114,0,0,0-8.105,8.105v4.6H2.148A2.148,2.148,0,0,0,0,75.514V88.222A2.148,2.148,0,0,0,2.148,90.37H40.3a9.9,9.9,0,0,0,19.407,0H97.852A2.148,2.148,0,0,0,100,88.222V75.514a2.148,2.148,0,0,0-2.148-2.148ZM60.933,60.19a10.58,10.58,0,0,1,3.847.8c.2.068.4.138.619.209a72.985,72.985,0,0,0,23.121,3.752,3.813,3.813,0,0,1,3.808,3.808v4.6H61.5a18.3,18.3,0,0,0-9.356,2.549v-6.94a8.8,8.8,0,0,1,8.785-8.785ZM7.672,68.763a3.813,3.813,0,0,1,3.808-3.808A72.982,72.982,0,0,0,34.6,61.2l.618-.209a10.583,10.583,0,0,1,3.847-.8,8.8,8.8,0,0,1,8.785,8.785v6.94A18.3,18.3,0,0,0,38.5,73.366H7.672ZM95.7,86.073H59.688a4.29,4.29,0,0,0-4.195,3.439,5.6,5.6,0,0,1-10.986,0,4.289,4.289,0,0,0-4.195-3.439H4.3V77.663H38.5A14.028,14.028,0,0,1,48.481,81.8a2.148,2.148,0,0,0,3.038,0A14.028,14.028,0,0,1,61.5,77.663H95.7Z"/>
      <path id="Path_452677" data-name="Path 452677" d="M42.058,35.243H37.853V31.038a2.148,2.148,0,1,0-4.3,0v4.205H29.35a2.148,2.148,0,1,0,0,4.3h4.205v4.205a2.148,2.148,0,0,0,4.3,0V39.54h4.205a2.148,2.148,0,0,0,0-4.3Z" fill="#2ab170"/>
      <path id="Path_452678" data-name="Path 452678" d="M74.482,38.186l4.04-4.04a2.149,2.149,0,1,0-3.038-3.038l-4.04,4.04-4.04-4.04a2.149,2.149,0,1,0-3.038,3.038l4.04,4.04-4.04,4.04A2.148,2.148,0,1,0,67.4,45.265l4.04-4.04,4.04,4.04a2.148,2.148,0,0,0,3.038-3.038Z"/>
      <g id="Group_90916" data-name="Group 90916">
        <path id="Path_452679" data-name="Path 452679" d="M19.822,30.01a2.147,2.147,0,0,1-1.79-.957l-6.354-9.531a2.148,2.148,0,0,1,3.575-2.383l6.354,9.531a2.149,2.149,0,0,1-1.786,3.34Z"/>
      </g>
      <g id="Group_90917" data-name="Group 90917">
        <path id="Path_452680" data-name="Path 452680" d="M43.646,18.891a2.149,2.149,0,0,1-1.519-3.668L55.033,2.317a2.149,2.149,0,0,1,3.038,3.038L45.166,18.261A2.142,2.142,0,0,1,43.646,18.891Z" fill="#2ab170"/>
      </g>
      <g id="Group_90918" data-name="Group 90918">
        <path id="Path_452681" data-name="Path 452681" d="M42.062,5.985a2.148,2.148,0,0,1,0-4.3h0a2.148,2.148,0,0,1,0,4.3Z" fill="#2ab170"/>
      </g>
      <g id="Group_90919" data-name="Group 90919">
        <path id="Path_452682" data-name="Path 452682" d="M57.946,20.479a2.148,2.148,0,0,1,0-4.3h0a2.148,2.148,0,0,1,0,4.3Z"/>
      </g>
      <g id="Group_90920" data-name="Group 90920">
        <path id="Path_452683" data-name="Path 452683" d="M13.464,53.837a2.149,2.149,0,0,1-2.1-1.727l-.267-1.334A20.048,20.048,0,0,0,5.593,40.5a2.148,2.148,0,1,1,3.038-3.038,24.33,24.33,0,0,1,6.674,12.471l.267,1.334a2.148,2.148,0,0,1-1.685,2.528,2.173,2.173,0,0,1-.424.042Z"/>
      </g>
      <g id="Group_90921" data-name="Group 90921">
        <path id="Path_452684" data-name="Path 452684" d="M86.536,53.837a2.15,2.15,0,0,1-2.109-2.57l.267-1.334a24.331,24.331,0,0,1,6.674-12.471A2.149,2.149,0,0,1,94.407,40.5a20.047,20.047,0,0,0-5.5,10.276l-.267,1.334A2.149,2.149,0,0,1,86.536,53.837Z" fill="#2ab170"/>
      </g>
      <g id="Group_90922" data-name="Group 90922">
        <path id="Path_452685" data-name="Path 452685" d="M78.592,22.067A2.149,2.149,0,0,1,77.073,18.4l3.177-3.177a2.149,2.149,0,1,1,3.038,3.038l-3.177,3.177A2.142,2.142,0,0,1,78.592,22.067Z" fill="#2ab170"/>
      </g>
    </g>
  </g>
</svg>
