<svg xmlns="http://www.w3.org/2000/svg" width="99.001" height="99.001"><g data-name="virtual-lab (4)" transform="translate(0 -0.002)"><g data-name="Group 802" transform="translate(0 0.002)"><g data-name="Group 800" transform="translate(0 16.618)"><g data-name="Group 799"><rect data-name="Rectangle 1783" width="13.46" height="4.321" transform="translate(46.606)" fill="#fff"/><path data-name="Path 1013" d="M96.841,86.008H71.787v4.321H94.68v60H4.321v-60H33.63V86.008H2.161A2.161,2.161,0,0,0,0,88.169v64.323a2.161,2.161,0,0,0,2.161,2.161H27.054a4.606,4.606,0,0,1,3.111,1.315c2.847,2.733,1.223,7.843-2.811,8.093H17.876a2.161,2.161,0,1,0,0,4.322h8.875q.359.017.717,0H71.533q.358.017.717,0h8.875a2.161,2.161,0,1,0,0-4.322H71.641c-4.025-.258-5.655-5.35-2.8-8.093a4.594,4.594,0,0,1,3.1-1.315H96.841A2.161,2.161,0,0,0,99,152.492V88.169A2.161,2.161,0,0,0,96.841,86.008ZM64.354,164.06H34.647a9.2,9.2,0,0,0-.044-9.408H64.4A9.2,9.2,0,0,0,64.354,164.06Z" transform="translate(0 -86.008)" fill="#fff"/></g></g><g data-name="Group 801" transform="translate(14.998)"><path data-name="Path 1014" d="M275.307,33.044V4.314a2.161,2.161,0,0,0-.2-4.312H259.428a2.16,2.16,0,0,0-.2,4.312V33.046a18.015,18.015,0,0,0-9.586,12.066,2.161,2.161,0,1,0,4.208.982,13.693,13.693,0,0,1,8.329-9.632,2.161,2.161,0,0,0,1.371-2.011V4.323h7.432V34.451a2.161,2.161,0,0,0,1.371,2.011c9.289,3.485,11.686,16.131,4.371,22.83a13.778,13.778,0,0,1-12.083,3.514,2.161,2.161,0,0,0-.8,4.246,18.426,18.426,0,0,0,2.365.289C285.917,68.17,292.81,42.024,275.307,33.044Z" transform="translate(-216.357 -0.002)" fill="#fff"/><path data-name="Path 1015" d="M125.358,81.365l-13.97-16.308V34.9a2.161,2.161,0,0,0,.013-4.321H94.041a2.161,2.161,0,1,0,.013,4.322V65.057L80.084,81.365a10.1,10.1,0,0,0-1.27,11.361,9.918,9.918,0,0,0,8.807,5.212h30.2A10.009,10.009,0,0,0,125.358,81.365Zm-2.518,9.281a5.652,5.652,0,0,1-5.02,2.97h-30.2a5.653,5.653,0,0,1-5.02-2.97,5.754,5.754,0,0,1,.764-6.469l14.49-16.915a2.161,2.161,0,0,0,.52-1.406V34.9h8.691V65.856a2.161,2.161,0,0,0,.52,1.406l14.49,16.914A5.755,5.755,0,0,1,122.84,90.645Z" transform="translate(-77.618 -24.673)" fill="#fff"/></g></g></g></svg>