<svg xmlns="http://www.w3.org/2000/svg" width="93.88" height="99.001"><g transform="translate(-13.243)"><g data-name="Group 810" transform="translate(13.243)"><g data-name="Group 804" transform="translate(3.061)"><path data-name="Path 1021" d="M109.958,49.5a65.075,65.075,0,0,0,4.3-5.955c6.019-9.47,7.263-17.749,3.5-23.314a13.255,13.255,0,0,0-6.875-5.035c-1.11-.385-1.3.58-1.684,1.691s-.818,1.945.292,2.329a9.114,9.114,0,0,1,4.743,3.4c2.715,4.015,1.415,10.813-3.567,18.649a60.059,60.059,0,0,1-3.524,4.946,98.815,98.815,0,0,0-10.778-10.2A83.329,83.329,0,0,0,92.7,19.6a51.2,51.2,0,0,1,5.543-1.042c1.165-.15.638-1.274.488-2.439s.136-1.93-1.03-1.78a55.823,55.823,0,0,0-6.525,1.26q-.1-.225-.192-.447C86.742,5.382,80.88,0,74.484,0S62.225,5.382,57.98,15.155q-.088.2-.175.407a52.19,52.19,0,0,0-7.8-1.328c-1.171-.1-.635,1.113-.739,2.284s-.806,1.85.364,1.954a47.545,47.545,0,0,1,6.646,1.094A83.293,83.293,0,0,0,52.6,36.011a98.665,98.665,0,0,0-10.78,10.2A60.017,60.017,0,0,1,38.3,41.263c-4.981-7.837-6.281-14.634-3.567-18.649a8.677,8.677,0,0,1,3.85-3.051c1.078-.467.389-1.227-.078-2.305s-.535-2.065-1.613-1.6a12.854,12.854,0,0,0-5.683,4.572c-3.762,5.565-2.519,13.844,3.5,23.314a65.024,65.024,0,0,0,4.3,5.954A64.569,64.569,0,0,0,34.5,55.794c-.623,1,3.2,2.9,3.607,2.256a59.531,59.531,0,0,1,3.72-5.259A98.817,98.817,0,0,0,52.6,62.988,83.358,83.358,0,0,0,56.264,79.4q-1.47.356-2.9.623a39.582,39.582,0,0,1-7.215.727c-5.461,0-9.478-1.5-11.416-4.362-1.331-1.969-1.717-4.561-1.147-7.7.21-1.156-3.976-1.915-4.185-.76-.776,4.274-.167,7.922,1.809,10.845,2.779,4.111,7.951,6.238,14.91,6.238a43.938,43.938,0,0,0,8.026-.8q1.793-.335,3.644-.8.095.223.19.444C62.225,93.619,68.087,99,74.484,99s12.258-5.382,16.5-15.155q.1-.22.19-.443a54.139,54.139,0,0,0,7.9,1.411c.071.007.14.01.21.01,1.081,0,1.374-4.13.2-4.244A49.5,49.5,0,0,1,92.7,79.4a83.342,83.342,0,0,0,3.665-16.415,98.817,98.817,0,0,0,10.778-10.2,60.058,60.058,0,0,1,3.524,4.946c4.981,7.837,6.281,14.634,3.567,18.649a8.448,8.448,0,0,1-3.35,2.82c-1.054.518-.722,1.6-.2,2.652.37.752.358,1.385,1.144,1.385a2.12,2.12,0,0,0,.937-.219,12.644,12.644,0,0,0,5-4.255c3.762-5.564,2.519-13.844-3.5-23.314A65.179,65.179,0,0,0,109.958,49.5ZM91.508,32.254q-1.78-1.3-3.635-2.558c-2.881-1.949-5.77-3.733-8.641-5.343A83.126,83.126,0,0,1,88.6,20.748,74.053,74.053,0,0,1,91.508,32.254ZM92.938,49.5a105.5,105.5,0,0,1-.593,11.265q-3.272,2.59-6.855,5.016a111.209,111.209,0,0,1-11.005,6.568,111.208,111.208,0,0,1-11.007-6.568q-3.574-2.417-6.855-5.016a107.294,107.294,0,0,1,0-22.531q3.27-2.587,6.855-5.015a110.592,110.592,0,0,1,11.052-6.583A115.083,115.083,0,0,1,85.49,33.22q3.574,2.417,6.855,5.016A105.485,105.485,0,0,1,92.938,49.5ZM74.484,4.254c4.518,0,9.1,4.565,12.572,12.527a91.455,91.455,0,0,0-12.515,5.09,87.159,87.159,0,0,0-12.6-5.15C65.409,8.8,69.977,4.254,74.484,4.254ZM60.389,20.687a78.652,78.652,0,0,1,9.446,3.643c-2.939,1.627-5.867,3.422-8.741,5.366q-1.854,1.254-3.635,2.558A73.954,73.954,0,0,1,60.389,20.687ZM44.581,49.5a89.424,89.424,0,0,1,7.439-7.406c-.162,2.431-.244,4.905-.244,7.408s.082,4.975.244,7.405A89.635,89.635,0,0,1,44.581,49.5ZM57.459,66.746q1.78,1.3,3.635,2.558c2.862,1.936,5.768,3.72,8.678,5.337a82.283,82.283,0,0,1-9.4,3.616A74.087,74.087,0,0,1,57.459,66.746Zm17.025,28c-4.517,0-9.1-4.562-12.569-12.519a90.4,90.4,0,0,0,12.573-5.116,90.813,90.813,0,0,0,12.565,5.115C83.579,90.185,79,94.747,74.484,94.747ZM88.6,78.261a82.433,82.433,0,0,1-9.4-3.619c2.91-1.617,5.814-3.4,8.676-5.338q1.854-1.254,3.635-2.558A74.044,74.044,0,0,1,88.6,78.261Zm8.351-21.356c.162-2.43.244-4.9.244-7.405s-.082-4.975-.244-7.405a89.629,89.629,0,0,1,7.437,7.405A89.658,89.658,0,0,1,96.948,56.906Z" transform="translate(-29.073)"/><path data-name="Path 1022" d="M222.341,200.776a7.907,7.907,0,1,0-11.744,0,11.381,11.381,0,0,0-5.5,9.74v.821a2.127,2.127,0,0,0,2.127,2.127h18.5a2.127,2.127,0,0,0,2.127-2.127v-.821A11.381,11.381,0,0,0,222.341,200.776Zm-9.525-5.29a3.653,3.653,0,1,1,3.653,3.654A3.657,3.657,0,0,1,212.817,195.486Zm-3.348,13.724a7.121,7.121,0,0,1,14,0Z" transform="translate(-171.059 -151.308)"/></g><g data-name="Group 809" transform="translate(0 9.078)"><g data-name="Group 805" transform="translate(10.864 0.59)"><path data-name="Path 1023" d="M76.471,64.088a7.044,7.044,0,1,1,7.043-7.044A7.051,7.051,0,0,1,76.471,64.088Zm0-9.834a2.79,2.79,0,1,0,2.789,2.79A2.793,2.793,0,0,0,76.471,54.255Z" transform="translate(-69.428 -50.001)" fill="#2ab170"/></g><g data-name="Group 806" transform="translate(72.411 66.364)"><path data-name="Path 1024" d="M394.77,404.248a7.044,7.044,0,1,1,7.043-7.044A7.051,7.051,0,0,1,394.77,404.248Zm0-9.834a2.79,2.79,0,1,0,2.789,2.79A2.793,2.793,0,0,0,394.77,394.415Z" transform="translate(-387.727 -390.161)" fill="#2ab170"/></g><g data-name="Group 807" transform="translate(71.182)"><path data-name="Path 1025" d="M388.414,61.037a7.044,7.044,0,1,1,7.043-7.044A7.051,7.051,0,0,1,388.414,61.037Zm0-9.834a2.79,2.79,0,1,0,2.789,2.79A2.793,2.793,0,0,0,388.414,51.2Z" transform="translate(-381.371 -46.95)" fill="#2ab170"/></g><g data-name="Group 808" transform="translate(0 46.071)"><path data-name="Path 1026" d="M20.286,299.3a7.044,7.044,0,1,1,7.043-7.044A7.051,7.051,0,0,1,20.286,299.3Zm0-9.834a2.79,2.79,0,1,0,2.789,2.79A2.793,2.793,0,0,0,20.286,289.471Z" transform="translate(-13.243 -285.217)" fill="#2ab170"/></g></g></g></g></svg>