<svg xmlns="http://www.w3.org/2000/svg" width="99.001" height="99.001"><path data-name="Path 983" d="M234.326,84.584h-3.885a19.661,19.661,0,0,0-1.578-5.882l3.362-1.941a2.127,2.127,0,0,0-2.127-3.684l-3.368,1.944a19.98,19.98,0,0,0-4.3-4.3l1.944-3.368a2.127,2.127,0,1,0-3.684-2.127l-1.941,3.362a19.657,19.657,0,0,0-5.882-1.578V63.123a2.127,2.127,0,1,0-4.254,0v3.884a19.656,19.656,0,0,0-5.882,1.578l-1.941-3.362a2.127,2.127,0,0,0-3.684,2.127l1.944,3.368a19.984,19.984,0,0,0-4.3,4.3l-3.368-1.944a2.127,2.127,0,1,0-2.127,3.684l3.362,1.941a19.652,19.652,0,0,0-1.578,5.882h-3.885a2.127,2.127,0,1,0,0,4.254h3.885a19.663,19.663,0,0,0,1.578,5.882l-3.362,1.941a2.127,2.127,0,1,0,2.127,3.684l3.368-1.944a19.984,19.984,0,0,0,4.3,4.3l-1.944,3.368a2.127,2.127,0,1,0,3.684,2.127l1.941-3.362a19.652,19.652,0,0,0,5.882,1.578V110.3a2.127,2.127,0,1,0,4.254,0v-3.885a19.646,19.646,0,0,0,5.882-1.578l1.941,3.362a2.127,2.127,0,1,0,3.684-2.127l-1.944-3.368a19.98,19.98,0,0,0,4.3-4.3l3.368,1.944a2.127,2.127,0,1,0,2.127-3.684l-3.362-1.941a19.651,19.651,0,0,0,1.578-5.882h3.885a2.127,2.127,0,1,0,0-4.254Zm-23.588,17.691A15.564,15.564,0,1,1,226.3,86.711,15.582,15.582,0,0,1,210.737,102.276Z" transform="translate(-149.246 -49.202)" fill="#2ab170"/><path data-name="Path 984" d="M61.491,0A37.494,37.494,0,0,0,29.915,57.737L.623,87.03a2.127,2.127,0,0,0,0,3.008l8.34,8.34a2.127,2.127,0,0,0,3.008,0L41.263,69.085A37.505,37.505,0,1,0,61.491,0ZM10.467,93.866,5.135,88.534,32.449,61.22a37.852,37.852,0,0,0,5.332,5.332Zm51.024-23.1A33.256,33.256,0,1,1,94.747,37.51,33.293,33.293,0,0,1,61.491,70.765Z"/><path data-name="Path 985" d="M324.765,218.726a2.13,2.13,0,1,1-.2-4.254A2.13,2.13,0,1,1,324.765,218.726Z" transform="translate(-260.129 -172.996)"/><path data-name="Path 986" d="M294.083,157.751c-2.5.056-2.879-3.782-.416-4.213C296.676,153,297.139,157.693,294.083,157.751Z" transform="translate(-235.541 -123.815)"/></svg>