<svg xmlns="http://www.w3.org/2000/svg" width="99" height="99.001"><g transform="translate(-0.002 0)"><g data-name="Group 779" transform="translate(10.727 10.717)"><g data-name="Group 773" transform="translate(12.834 54.508)"><path data-name="Path 952" d="M140.647,358.257a2.12,2.12,0,0,1-1.5-.623l-16.679-16.679a2.127,2.127,0,0,1,3.008-3.008l16.679,16.679a2.127,2.127,0,0,1-1.5,3.631Z" transform="translate(-121.841 -337.323)" fill="#fff"/></g><g data-name="Group 774" transform="translate(38.204 29.138)"><path data-name="Path 953" d="M271.851,227.054a2.12,2.12,0,0,1-1.5-.623l-16.679-16.679a2.127,2.127,0,0,1,3.008-3.008l16.679,16.679a2.127,2.127,0,0,1-1.5,3.631Z" transform="translate(-253.045 -206.12)" fill="#fff"/></g><g data-name="Group 778"><g data-name="Group 775" transform="translate(0 16.081)"><path data-name="Path 954" d="M110.983,141.6,62.546,190.037a9.667,9.667,0,1,0,13.671,13.671l48.437-48.437,3.008,3.008L79.225,206.716a13.921,13.921,0,0,1-19.687-19.687l48.437-48.437Z" transform="translate(-55.467 -138.592)" fill="#fff"/></g><g data-name="Group 777" transform="translate(47.714)"><g data-name="Group 776"><path data-name="Path 955" d="M327.874,95.363a2.124,2.124,0,0,0,3.009,0l11.288-11.286a2.13,2.13,0,0,0,0-3.009L317.152,56.049a2.126,2.126,0,0,0-3.009,0L302.855,67.337a2.126,2.126,0,0,0,0,3.007Zm-12.226-34.8,5.331,5.333-8.28,8.28-5.333-5.333Zm8.34,8.34,5.331,5.333-8.28,8.28-5.331-5.331Zm5.391,21.952-5.331-5.331,8.28-8.282,5.331,5.333Z" transform="translate(-302.232 -55.425)" fill="#fff"/></g></g></g></g><g data-name="Group 781" transform="translate(11.849 24.483)"><g data-name="Group 780"><path data-name="Path 956" d="M75.767,133.869A2.126,2.126,0,0,1,73.64,136h-3v3a2.127,2.127,0,1,1-4.254,0v-3H63.4a2.127,2.127,0,1,1,0-4.254h2.993v-3a2.127,2.127,0,1,1,4.254,0v3h3A2.127,2.127,0,0,1,75.767,133.869Z" transform="translate(-61.271 -126.62)" fill="#fff"/></g></g><g data-name="Group 783" transform="translate(0.002 -0.001)"><g data-name="Group 782" transform="translate(0)"><path data-name="Path 957" d="M19.1,51.278a19.813,19.813,0,0,1-12.96-4.6A18.009,18.009,0,0,1,.005,32.825C-.112,24.814,2.946,16.659,8.85,9.244A49.769,49.769,0,0,1,17.862.395a2.126,2.126,0,0,1,2.47,0,49.769,49.769,0,0,1,9.013,8.849c5.9,7.415,8.962,15.569,8.844,23.581a18.009,18.009,0,0,1-6.131,13.849A19.812,19.812,0,0,1,19.1,51.278ZM4.259,32.763c.143,9.8,7.792,14.261,14.838,14.261s14.695-4.463,14.838-14.261c.1-7.082-2.536-14.071-7.844-20.776A48.861,48.861,0,0,0,19.1,4.83,48.841,48.841,0,0,0,12.1,11.987C6.794,18.691,4.155,25.681,4.259,32.763Z" transform="translate(-0.002 0.001)" fill="#fff"/></g></g></g></svg>