<svg xmlns="http://www.w3.org/2000/svg" width="81" height="81"><path data-name="Path 1130" d="M74.27,43.386h-.482a1.768,1.768,0,0,0,0,3.536h.482A3.042,3.042,0,0,1,77.3,49.965V97.058a6.519,6.519,0,0,0-3.034-.746H6.569a3.044,3.044,0,0,1,0-6.087h4.8a1.768,1.768,0,0,0,1.768-1.768V46.921H49.923a1.768,1.768,0,1,0,0-3.536H13.139V35.691a1.768,1.768,0,0,0-1.768-1.768h-4.8A6.582,6.582,0,0,0,0,40.5V93.269a6.582,6.582,0,0,0,6.569,6.579H67.7V107.7a1.768,1.768,0,0,0,1.768,1.768h4.8a6.582,6.582,0,0,0,6.569-6.579V49.965A6.582,6.582,0,0,0,74.27,43.386Zm-67.7-5.927H9.6v49.23H6.569a6.519,6.519,0,0,0-3.034.746V40.5A3.042,3.042,0,0,1,6.569,37.459Zm67.7,68.477H71.237V99.848H74.27a3.044,3.044,0,0,1,0,6.087Z" transform="translate(0 -28.471)" fill="#fff"/><g data-name="Group 874" transform="translate(22.374 0)"><g data-name="Group 873" transform="translate(9.728 0)"><path data-name="Path 1131" d="M201.511,48.993a1.768,1.768,0,0,1-1.692-2.28l3.328-10.989a37.752,37.752,0,0,1,9.375-15.672l4.011-4.019A60.048,60.048,0,0,1,236.454,3.09,53.573,53.573,0,0,1,246.582.024a1.768,1.768,0,0,1,2,2.2c-.207.778-5.18,19.165-15.938,29.946l-4.011,4.019a37.645,37.645,0,0,1-15.642,9.4l-10.966,3.334A1.762,1.762,0,0,1,201.511,48.993Zm42.774-44.8c-5.138,1.4-16.192,5.265-25.249,14.341l-4.011,4.019a34.2,34.2,0,0,0-8.494,14.2l-2.369,7.823,7.8-2.372h0a34.1,34.1,0,0,0,14.168-8.51l4.011-4.019C237.8,22,242.462,9.726,244.284,4.189Z" transform="translate(-199.743 0)" fill="#fff"/></g><path data-name="Path 1132" d="M175.409,137.152a1.768,1.768,0,0,0-2.5,0l-24.3,24.355v-5.37a1.768,1.768,0,0,0-3.536,0v8.913l-5.337,5.349a1.768,1.768,0,1,0,2.5,2.5l5.336-5.347h8.891a1.768,1.768,0,0,0,0-3.536H151.1l24.313-24.363A1.768,1.768,0,0,0,175.409,137.152Z" transform="translate(-139.215 -114.676)" fill="#fff"/></g></svg>