<svg xmlns="http://www.w3.org/2000/svg" width="136.111" height="135.314"><g transform="translate(0 -1.499)" opacity="0.2"><g data-name="Group 864" transform="translate(0 1.499)"><g data-name="Group 862" transform="translate(15.872 16.627)"><path data-name="Path 1107" d="M71.39,87.357A11.7,11.7,0,0,1,59.7,75.67c.642-15.5,22.734-15.5,23.374,0A11.7,11.7,0,0,1,71.39,87.357Zm0-17.525a5.838,5.838,0,1,0,5.838,5.838A5.845,5.845,0,0,0,71.39,69.832Z" transform="translate(-59.703 -64.044)" fill="#2ab170"/></g><g data-name="Group 863"><path data-name="Path 1108" d="M27.559,81.688a2.925,2.925,0,0,1-2.52-1.441L4.246,44.933A30.725,30.725,0,0,1,0,29.252,27.785,27.785,0,0,1,27.754,1.5c22.391.035,34.925,24.836,23.4,43.513L30.068,80.264A2.924,2.924,0,0,1,27.559,81.688Zm.2-74.34a21.932,21.932,0,0,0-21.9,22.008,24.872,24.872,0,0,0,3.437,12.61L27.579,73.033,46.135,42.01a24.859,24.859,0,0,0,3.524-12.757A21.93,21.93,0,0,0,27.754,7.348Z" transform="translate(0 -1.499)" fill="#2ab170"/></g></g><path data-name="Path 1109" d="M101.492,315.811a13.2,13.2,0,0,0-13.03,11.2h-58.2a8.954,8.954,0,1,1,0-17.909H66.9c18.54-.762,18.554-27.2,0-27.966H44.062l-2.647,4.425a2.921,2.921,0,0,1-2.448,1.419l0,0H66.9c10.785.445,10.795,15.821,0,16.269H30.259a14.8,14.8,0,0,0,0,29.606H88.9c4.693,14.258,25.416,11.308,25.775-3.873A13.192,13.192,0,0,0,101.492,315.811Zm0,20.507a7.338,7.338,0,0,1-7.33-7.329c.4-9.723,14.258-9.721,14.659,0A7.338,7.338,0,0,1,101.492,336.318Z" transform="translate(-11.347 -205.299)" fill="#2ab170"/><path data-name="Path 1110" d="M376.985,195.163a2.924,2.924,0,0,0-1.836-2.6l-43.04-17.216a2.938,2.938,0,0,0-4.01,2.715v60.254a13.169,13.169,0,0,1,5.849,0V218.457L375.363,197.9A2.925,2.925,0,0,0,376.985,195.163Zm-43.038,16.764V182.383l32.96,13.184Z" transform="translate(-240.875 -127.476)" fill="#2ab170"/></g></svg>