<svg xmlns="http://www.w3.org/2000/svg" width="206.178" height="240"><g data-name="microscope (2)" transform="translate(-36.077)" opacity="0.15"><path data-name="Path 1094" d="M147.725,47.188a5.156,5.156,0,0,1-5.156-5.156V10.313H122.257V42.031a5.156,5.156,0,1,1-10.313,0V5.156A5.156,5.156,0,0,1,117.1,0h30.625a5.156,5.156,0,0,1,5.156,5.156V42.031A5.156,5.156,0,0,1,147.725,47.188Z" transform="translate(-40.304)" fill="#1b9dd0"/><path data-name="Path 1095" d="M146.194,187.682H92.6a5.156,5.156,0,0,1-5.156-5.156v-95.7A5.156,5.156,0,0,1,92.6,81.667h53.594a5.156,5.156,0,0,1,5.156,5.156V106a5.156,5.156,0,0,1-10.312,0V91.98H97.757v85.39h43.281V159.524a5.156,5.156,0,0,1,10.313,0v23A5.156,5.156,0,0,1,146.194,187.682Z" transform="translate(-27.289 -43.386)" fill="#1b9dd0"/><path data-name="Path 1096" d="M208.232,164.654c-13.264-19.255-33.759-30.669-55.352-30.669H150.6a31.955,31.955,0,1,0-.1,41.052h.47c8.535,0,16.718,3.878,22.862,10.735a35.691,35.691,0,0,0,8.385,40.889c-4.622,15.4-17.113,26-31.247,26H64.354a5.156,5.156,0,0,0-5.156,5.156v36.953H41.233a5.156,5.156,0,1,0,0,10.312H209.976a5.156,5.156,0,1,0,0-10.312H192.011v-14.7c14.43-11.022,24.855-27.9,29.036-47.013a35.773,35.773,0,0,0-12.815-68.4Zm-82.149,11.44a21.641,21.641,0,1,1,21.641-21.64A21.665,21.665,0,0,1,126.083,176.094Zm53.479.756a41.2,41.2,0,0,0-23.351-11.764,31.849,31.849,0,0,0,.2-20.665c15.184,1.056,29.542,8.877,39.989,21.642A35.847,35.847,0,0,0,179.561,176.849ZM69.511,294.766v-31.8H181.7v31.8Zm122.5-28.381v-8.572a5.156,5.156,0,0,0-5.156-5.156h-9.361a48.647,48.647,0,0,0,13.571-19.978,35.565,35.565,0,0,0,15.409,3.493c1.073,0,2.132-.056,3.181-.149A71.42,71.42,0,0,1,192.011,266.384Zm14.462-40.525a25.469,25.469,0,1,1,25.469-25.469A25.5,25.5,0,0,1,206.473,225.859Z" transform="translate(0 -65.078)" fill="#1b9dd0"/></g></svg>