<svg xmlns="http://www.w3.org/2000/svg" xmlns:xlink="http://www.w3.org/1999/xlink" width="25" height="25" viewBox="0 0 25 25">
  <defs>
    <clipPath id="clip-path">
      <rect id="Rectangle_17238" data-name="Rectangle 17238" width="25" height="25" transform="translate(342 2964)" fill="#fff"/>
    </clipPath>
  </defs>
  <g id="Mask_Group_405" data-name="Mask Group 405" transform="translate(-342 -2964)" clip-path="url(#clip-path)">
    <g id="customer-service" transform="translate(342 2964)">
      <path id="Path_452614" data-name="Path 452614" d="M21.561,18.14l-.028-.033a9.6,9.6,0,0,0-5.318-3.171A6.618,6.618,0,0,0,18.6,11.765h1.675a1.7,1.7,0,0,0,1.7-1.7v-.5a9.559,9.559,0,1,0-19.118,0v.5a1.7,1.7,0,0,0,1.7,1.7H6.177A6.619,6.619,0,0,0,8.62,14.974a9.587,9.587,0,0,0-5.153,3.133l-.028.033A9.293,9.293,0,0,0,1.13,24.265V25H23.87v-.735a9.293,9.293,0,0,0-2.309-6.125ZM12.39,14.692a5.123,5.123,0,0,1-4.624-2.928H11.44V10.294H7.324a5.117,5.117,0,1,1,5.066,4.4Zm8.119-4.629a.231.231,0,0,1-.231.231h-1.34a6.574,6.574,0,0,0,0-1.471h1.541c.022.242.034.487.034.735ZM12.421,1.471A8.1,8.1,0,0,1,20.2,7.353H18.591a6.587,6.587,0,0,0-12.4,0H4.638a8.1,8.1,0,0,1,7.782-5.882ZM4.564,10.294a.231.231,0,0,1-.231-.231v-.5c0-.248.012-.493.034-.735h1.48a6.574,6.574,0,0,0,0,1.471ZM2.634,23.529a7.936,7.936,0,0,1,1.928-4.44l.028-.033a8.266,8.266,0,0,1,6.353-2.879h3.114a8.266,8.266,0,0,1,6.353,2.88l.028.033a7.937,7.937,0,0,1,1.928,4.44Z" fill="#fff"/>
    </g>
  </g>
</svg>
