<svg xmlns="http://www.w3.org/2000/svg" width="25.831" height="49.867" viewBox="0 0 25.831 49.867">
  <g id="masculine-user" transform="translate(-115.395)">
    <g id="Group_88904" data-name="Group 88904" transform="translate(123.536)">
      <path id="Path_451612" data-name="Path 451612" d="M198.336,9.551a4.776,4.776,0,1,0-4.776-4.776A4.775,4.775,0,0,0,198.336,9.551Z" transform="translate(-193.56)" fill="#fff"/>
    </g>
    <g id="Group_88905" data-name="Group 88905" transform="translate(115.395 11.406)">
      <path id="Path_451613" data-name="Path 451613" d="M141.029,124.029l-5.322-12.206a3.9,3.9,0,0,0-2.96-2.267c-.2-.052-8.675-.052-8.877,0a3.9,3.9,0,0,0-2.955,2.266l-5.322,12.2a2.371,2.371,0,0,0,4.346,1.895l2.006-4.6v24.068a2.587,2.587,0,0,0,5.173,0V129.157H129.5v16.235a2.586,2.586,0,0,0,5.172,0V121.322l2.007,4.6a2.371,2.371,0,0,0,4.346-1.9Z" transform="translate(-115.395 -109.516)" fill="#fff"/>
    </g>
  </g>
</svg>
